<svg width="111" height="96" viewBox="0 0 111 96" fill="none" xmlns="http://www.w3.org/2000/svg">
<g clip-path="url(#clip0_265_1622)">
<path d="M59.2147 35.4907C45.4846 32.5721 31.9001 41.4836 28.9476 55.3735C25.9951 69.2634 34.7802 82.9299 48.5103 85.8485C62.2404 88.7671 75.8249 79.8556 78.7775 65.9657C81.73 52.0758 72.9449 38.4093 59.2147 35.4907ZM49.1046 83.0527C36.8951 80.4574 29.0922 68.301 31.7146 55.9641C34.3371 43.6272 46.41 35.6959 58.6194 38.2912C70.8289 40.8865 78.6318 53.0429 76.0094 65.3798C73.387 77.7167 61.3141 85.648 49.1046 83.0527Z" fill="#00DFCD"/>
<path opacity="0.6" d="M100.351 32.5389L88.876 30.0997C87.1729 29.7376 85.8701 28.3778 85.5754 26.6355L84.2997 19.0982C83.8153 16.2008 81.6613 13.9454 78.8095 13.3392L50.3222 7.28378C47.4705 6.67758 44.5853 7.86179 42.9666 10.3122L38.7353 16.6789C37.7569 18.153 36.0282 18.866 34.3111 18.5009L22.8362 16.0618C19.0159 15.2497 15.2499 17.7249 14.4294 21.5851L6.69847 57.9544C5.87793 61.8145 8.31146 65.6075 12.1317 66.4196L23.2043 68.7733L24.5892 69.0677L26.9286 69.5649C25.4351 64.9502 25.0956 59.8759 26.1778 54.7847C29.4634 39.3278 44.5121 29.4407 59.8073 32.692C75.1025 35.9433 84.8284 51.0965 81.5427 66.5535C80.4605 71.6447 78.0868 76.1398 74.8449 79.7504L77.1843 80.2477L88.2568 82.6013L89.6418 82.8957C93.4621 83.7078 97.228 81.2325 98.0486 77.3724L105.779 41.0031C106.6 37.143 104.166 33.3499 100.346 32.5379L100.351 32.5389ZM23.4204 33.7312C20.3604 33.0807 18.4153 30.0496 19.0725 26.9577C19.7298 23.8659 22.7396 21.888 25.7996 22.5385C28.8595 23.1889 30.8046 26.22 30.1474 29.3119C29.4902 32.4037 26.4803 34.3816 23.4204 33.7312ZM77.0907 28.4417C76.0657 29.5253 74.5796 29.9829 73.1245 29.6736L48.874 24.5187C47.4212 24.2099 46.2502 23.185 45.7517 21.78C45.2561 20.3732 45.51 18.8335 46.4401 17.6561L48.4198 15.1523C49.4295 13.8764 51.0445 13.2841 52.6376 13.6227L74.1206 18.1893C75.7114 18.5275 76.9482 19.7259 77.3516 21.3022L78.1417 24.3948C78.5124 25.8487 78.1204 27.3591 77.0931 28.4422L77.0907 28.4417Z" fill="#00DFCD"/>
<path d="M17.8754 11.8616L31.7178 14.8041C34.0011 15.2894 36.2719 13.7978 36.7623 11.4906C37.2527 9.18349 35.785 6.89721 33.5017 6.41186L19.6593 3.46942C17.3765 2.98172 15.1058 4.47333 14.6154 6.78048C14.125 9.08763 15.5926 11.3739 17.8759 11.8593L17.8754 11.8616Z" fill="#00DFCD"/>
<path d="M49.6997 80.2545C60.4016 82.5294 70.9411 75.605 73.2403 64.7886C75.5396 53.9721 68.7278 43.3595 58.0259 41.0847C47.324 38.8098 36.7846 45.7341 34.4853 56.5505C32.1861 67.367 38.9978 77.9796 49.6997 80.2545Z" fill="#00DFCD"/>
<path d="M24.0155 30.933C25.5439 31.2579 27.0493 30.2685 27.3778 28.7231C27.7063 27.1777 26.7335 25.6615 25.2051 25.3366C23.6766 25.0117 22.1712 26.0011 21.8427 27.5465C21.5142 29.0919 22.487 30.6081 24.0155 30.933Z" fill="#00DFCD"/>
<path d="M74.6065 22.0226C74.4711 21.4978 74.0492 21.1012 73.5229 20.9893L52.0399 16.4227C51.5135 16.3108 50.9668 16.5016 50.6297 16.9259L48.6499 19.4297C48.2119 19.9947 48.3471 20.5784 48.4289 20.8144C48.4974 21.0328 48.7593 21.5722 49.4658 21.7224L73.7164 26.8772C74.4229 27.0274 74.881 26.6435 75.0329 26.4695C75.2014 26.2868 75.5651 25.8067 75.3943 25.1147L74.6041 22.0221L74.6065 22.0226Z" fill="#00DFCD"/>
</g>
<defs>
<clipPath id="clip0_265_1622">
<rect width="96.2922" height="77.2245" fill="white" transform="translate(16.0566) rotate(12.0006)"/>
</clipPath>
</defs>
</svg>
