<svg width="81" height="80" viewBox="0 0 81 80" fill="none" xmlns="http://www.w3.org/2000/svg">
<g clip-path="url(#clip0_265_1547)">
<path d="M5.77776 0.989838L0.561523 2.51759L1.84112 6.97889L7.05892 5.44957L5.77776 0.989838Z" fill="#00DFCD"/>
<path d="M73.7522 55.6216L58.209 71.9781L7.91016 23.1978L23.4533 6.84285L73.7522 55.6216Z" fill="#00DFCD"/>
<path d="M62.3599 58.1188L61.63 58.8772L16.6266 14.6974L22.818 8.25958L67.8246 52.4363L62.3614 58.1173L62.3599 58.1188ZM3.64887 2.68804C3.73272 2.68647 3.81814 2.69586 3.90355 2.71775L5.89127 3.25254L3.2917 5.88741L2.72022 3.94214C2.58512 3.46364 2.84291 3.12588 2.95627 3.0086C3.15038 2.80688 3.39419 2.69586 3.65042 2.68804M7.59948 20.5426L4.08834 8.59421L8.6213 3.98436L20.4607 7.16654L7.97994 20.147L7.59793 20.5442L7.59948 20.5426ZM8.74087 22.8976L14.9308 16.4613L59.9373 60.6349L53.7412 67.068L8.74087 22.8976ZM78.4294 59.4433L70.39 51.5278C70.3636 51.4996 70.3326 51.4777 70.303 51.4527L23.624 5.63722C23.5992 5.6122 23.5697 5.59343 23.5433 5.57154C23.5324 5.56372 23.5231 5.55434 23.5122 5.54652C23.3398 5.41204 23.141 5.33073 22.9376 5.30258L8.61664 1.45426C8.598 1.44801 8.58248 1.43706 8.56384 1.43237L4.52161 0.3534C3.32276 0.0484746 2.05247 0.425332 1.20147 1.32134C0.563227 1.98749 0.234009 2.84284 0.246433 3.72635C0.251092 4.02502 0.302338 4.34715 0.384642 4.6552L0.418806 4.77091L5.84779 23.2838C5.92544 23.5465 6.09005 23.7717 6.30901 23.9281L52.9213 69.6841C52.9337 69.6966 52.9492 69.706 52.9632 69.717L60.9825 77.5622C63.9967 80.541 68.8511 80.4707 71.7861 77.4199L78.5878 70.3471C81.5368 67.3057 81.4669 62.3987 78.4325 59.4449" fill="white"/>
<path d="M66.3057 80.0004C64.2341 80.0004 62.2852 79.1997 60.8068 77.7377L52.7891 69.894C52.7798 69.8893 52.7643 69.8768 52.7487 69.8628L6.13645 24.1051C5.8973 23.9378 5.70163 23.6626 5.61001 23.353L0.148413 4.72593C0.0552379 4.38035 0.00399176 4.03789 -0.000666984 3.72984C-0.0130903 2.76815 0.348739 1.85181 1.0227 1.14814C1.93892 0.184884 3.30083 -0.213865 4.58043 0.112952L22.9995 5.06369C23.217 5.09028 23.4561 5.19192 23.6611 5.34986L23.7015 5.38269C23.7449 5.41397 23.7713 5.43586 23.7946 5.45932L70.4737 51.2748C70.5125 51.3029 70.5405 51.3264 70.5669 51.3545L78.6016 59.2654C80.1157 60.74 80.9683 62.7259 80.9978 64.8573C81.0289 66.9886 80.2337 68.9996 78.7616 70.5195L71.9614 77.5907C70.4923 79.1169 68.5201 79.9722 66.4082 79.9988C66.374 79.9988 66.3398 79.9988 66.3072 79.9988L66.3057 80.0004ZM3.6875 0.497628C2.8303 0.497628 1.99017 0.849465 1.37832 1.49372C0.795978 2.10357 0.480736 2.89481 0.49316 3.72359C0.497818 3.99098 0.542853 4.29122 0.622052 4.59145L0.654663 4.69935L6.08365 23.2138C6.14266 23.4171 6.27466 23.5985 6.45169 23.7267L53.0997 69.5125L53.1354 69.5406L61.1546 77.3858C62.5631 78.7791 64.436 79.5391 66.4035 79.5062C68.3835 79.4812 70.233 78.679 71.6089 77.2482L78.4106 70.1755C79.7927 68.7509 80.5366 66.8667 80.5071 64.8682C80.4791 62.8698 79.6809 61.0074 78.26 59.6251L70.1336 51.6345L23.4468 5.81115L23.3862 5.76424C23.2232 5.63602 23.0694 5.5719 22.9048 5.55001L4.45775 0.593015C4.20307 0.528902 3.94529 0.497628 3.68906 0.497628H3.6875ZM53.7457 67.4187L8.39283 22.9026L14.9259 16.1098L15.103 16.2834L60.2866 60.6305L53.7472 67.4202L53.7457 67.4187ZM9.08854 22.8932L53.7348 66.7165L59.5878 60.6399L14.9353 16.8135L9.09009 22.8932H9.08854ZM61.6345 59.2294L16.2785 14.704L22.8132 7.91123L68.1723 52.4351L61.6345 59.231V59.2294ZM16.9742 14.6931L61.6252 58.5242L67.475 52.4413L22.821 8.61334L16.9742 14.6947V14.6931ZM7.48283 21.0215L3.81018 8.52421L8.54657 3.70795L20.9311 7.03555L7.48283 21.0215ZM4.36613 8.66495L7.71732 20.0645L19.9931 7.29669L8.69565 4.26151L4.36457 8.66495H4.36613ZM3.17349 6.36002L2.484 4.01287C2.30852 3.38739 2.66569 2.95423 2.77905 2.83696C3.01665 2.58989 3.32257 2.45072 3.64247 2.44133C3.75894 2.44133 3.85988 2.45228 3.96392 2.48043L6.36473 3.12624L3.17194 6.36158L3.17349 6.36002ZM3.65489 2.93703C3.46388 2.94173 3.27909 3.02929 3.13156 3.18097C3.0446 3.27011 2.85514 3.51717 2.95608 3.8737L3.40953 5.41397L5.4159 3.38113L3.83969 2.95736C3.77913 2.94172 3.70925 2.93234 3.65489 2.93547V2.93703Z" fill="#00DFCD"/>
</g>
<defs>
<clipPath id="clip0_265_1547">
<rect width="81" height="80" fill="white"/>
</clipPath>
</defs>
</svg>
