<svg width="183" height="182" viewBox="0 0 183 182" fill="none" xmlns="http://www.w3.org/2000/svg">
<path d="M91.5 1C103.385 1 115.153 3.34065 126.133 7.88867C137.113 12.4367 147.089 19.1031 155.493 27.5068C163.897 35.9105 170.563 45.8872 175.111 56.8672C179.532 67.5391 181.867 78.9557 181.994 90.5H1.00586C1.13342 78.9557 3.46825 67.5391 7.88867 56.8672C12.4367 45.8872 19.1031 35.9105 27.5068 27.5068C35.9105 19.1031 45.8872 12.4367 56.8672 7.88867C67.8471 3.34065 79.6154 1 91.5 1Z" stroke="#00CC73" stroke-width="2"/>
<path d="M91.5 91.1738C103.385 91.1738 115.153 93.5145 126.133 98.0625C137.113 102.611 147.089 109.277 155.493 117.681C163.897 126.084 170.563 136.061 175.111 147.041C179.532 157.713 181.867 169.13 181.994 180.674H1.00586C1.13342 169.13 3.46825 157.713 7.88867 147.041C12.4367 136.061 19.1031 126.084 27.5068 117.681C35.9105 109.277 45.8872 102.611 56.8672 98.0625C67.8471 93.5145 79.6154 91.1738 91.5 91.1738Z" stroke="#00CC73" stroke-width="2"/>
</svg>
