<svg width="148" height="146" viewBox="0 0 148 146" fill="none" xmlns="http://www.w3.org/2000/svg">
<path d="M85.2148 41.458L85.6006 42.7451L86.7227 42.0068L119.826 20.2197L104.119 56.6035L103.587 57.8379L104.922 57.9932L144.284 62.582L108.865 80.3574L107.664 80.96L108.586 81.9375L135.789 110.755L97.2314 101.604L95.9238 101.294L96.002 102.636L98.3174 142.196L74.6631 110.403L73.8604 109.325L73.0576 110.403L49.4023 142.196L51.7188 102.636L51.7969 101.294L50.4893 101.604L11.9307 110.755L39.1348 81.9375L40.0566 80.96L38.8555 80.3574L3.43555 62.582L42.7988 57.9932L44.1338 57.8379L43.6016 56.6035L27.8936 20.2197L60.998 42.0068L62.1201 42.7451L62.5059 41.458L73.8604 3.48926L85.2148 41.458Z" stroke="#00DFCD" stroke-width="2"/>
</svg>
