<svg width="126" height="124" viewBox="0 0 126 124" fill="none" xmlns="http://www.w3.org/2000/svg">
<path d="M72.6338 33.9834L73.0293 35.2041L74.1162 34.5234L101.527 17.3525L89.3389 47.2656L88.8535 48.458L90.1289 48.6338L122.182 53.0576L93.5811 68.1533L92.4414 68.7549L93.3066 69.71L115.011 93.6553L83.3711 86.875L82.1143 86.6055L82.1621 87.8896L83.3594 120.159L63.4883 94.6699L62.6992 93.6582L61.9102 94.6699L42.0381 120.159L43.2363 87.8896L43.2842 86.6055L42.0273 86.875L10.3877 93.6553L32.0898 69.71L32.9541 68.7549L31.8154 68.1533L3.21387 53.0576L35.2676 48.6338L36.542 48.458L36.0566 47.2666L23.8701 17.3525L51.2793 34.5234L52.3672 35.2041L52.7617 33.9834L62.6982 3.24902L72.6338 33.9834Z" stroke="#F6F6E7" stroke-width="2"/>
</svg>
