<svg width="106" height="32" viewBox="0 0 106 32" fill="none" xmlns="http://www.w3.org/2000/svg">
<path d="M1.7207 2.57266L6.0455 1.29688L11.3264 21.8202C14.1958 11.1445 16.8776 4.6817 19.3936 0.115631L23.2403 1.43101C21.4107 4.74348 19.4561 9.91365 17.3769 16.9188C16.3789 20.2762 15.4641 23.6557 14.6114 27.0574C13.9462 29.7209 13.5927 31.1979 13.5302 31.5337L9.20536 31.5786L1.7207 2.57266Z" fill="#00CC73"/>
<path d="M71.3034 31.04H75.6276L79.8862 0.967931H75.5577L71.3028 31.04H71.3034ZM76.0283 31.4947H70.7744L75.158 0.513275H80.4162L76.0288 31.4947H76.0283Z" fill="#00CC73"/>
<path d="M87.6161 0.50324C85.7998 0.50324 84.3714 0.915121 83.3702 1.72727C82.3738 2.53571 81.7453 3.80568 81.5025 5.50179L78.5441 26.5611C78.3061 28.2492 78.5483 29.506 79.2638 30.2965C79.9841 31.0928 81.2778 31.4968 83.1095 31.4968C84.9412 31.4968 86.4723 31.0786 87.4428 30.2532C88.4111 29.43 89.0259 28.1663 89.2686 26.4972L90.3588 18.871H86.0308L84.9772 26.2564C84.9014 26.579 84.77 26.8341 84.5871 27.0147C84.3873 27.2116 84.1271 27.3114 83.8128 27.3114C83.4985 27.3114 83.243 27.2153 83.0771 27.0252C82.9017 26.8314 82.8514 26.5415 82.9287 26.1661L85.8406 5.76212C85.8761 5.43631 85.9943 5.17122 86.1904 4.98218C86.3822 4.78839 86.6493 4.6833 86.9589 4.6833C87.411 4.6833 87.6336 4.87974 87.7411 5.04397C87.88 5.26416 87.9314 5.52449 87.8948 5.82073L86.7543 13.6819H91.0823L92.2732 5.43684C92.4815 3.78086 92.2234 2.53043 91.5063 1.72304C90.7892 0.91248 89.4806 0.501654 87.6161 0.501654M83.1095 31.9514C81.1411 31.9514 79.7318 31.4968 78.9209 30.5996C78.111 29.7046 77.8312 28.3248 78.0888 26.4987L81.0472 5.43895C81.3069 3.62561 81.9901 2.25901 83.0782 1.37611C84.1636 0.495317 85.6906 0.048584 87.6161 0.048584C89.5416 0.048584 91.0446 0.511686 91.8524 1.42469C92.6595 2.33347 92.9548 3.70377 92.729 5.49809L91.4814 14.1381H86.2232L87.438 5.76264C87.4608 5.57413 87.4332 5.4173 87.3516 5.28845C87.3288 5.2536 87.2541 5.13901 86.9583 5.13901C86.7728 5.13901 86.6239 5.19446 86.5153 5.3043C86.3918 5.42364 86.3218 5.5905 86.2964 5.81915L83.3803 26.2516C83.3469 26.41 83.3273 26.6207 83.4222 26.7258C83.5006 26.8151 83.6273 26.8573 83.8123 26.8573C83.9972 26.8573 84.1493 26.804 84.2612 26.6936C84.3804 26.5758 84.4695 26.3974 84.5262 26.1629L85.6307 18.4164H90.8888L89.7244 26.5611C89.4652 28.3422 88.7985 29.7003 87.7433 30.5975C86.687 31.4957 85.1282 31.9514 83.1095 31.9514Z" fill="#00CC73"/>
<path d="M92.7248 31.04H97.048L100.73 5.15329H103.157L103.75 0.967409H94.5368L93.9438 5.15329H96.4056L92.7248 31.04ZM97.4481 31.4947H92.1953L95.8762 5.60794H93.4148L94.1367 0.512756H104.279L103.557 5.60794H101.131L97.4487 31.4947H97.4481Z" fill="#00CC73"/>
<path d="M63.7384 26.4016H64.182C64.4305 26.4016 64.6118 26.3467 64.7215 26.2384C64.8402 26.1196 64.9298 25.8941 64.986 25.5704L67.7097 6.37836C67.7425 5.9744 67.6741 5.80648 67.6302 5.74206C67.5512 5.63223 67.344 5.60847 67.185 5.60847H66.6825L63.7378 26.4016H63.7384ZM64.182 26.8563H63.2089L66.2824 5.15328H67.185C67.574 5.15328 67.8506 5.26417 68.008 5.48279C68.1522 5.69348 68.2031 5.99869 68.1676 6.42167L68.166 6.43434L65.4402 25.6396C65.3655 26.07 65.2372 26.3683 65.0475 26.5584C64.8471 26.7564 64.5561 26.8563 64.1814 26.8563M58.2926 31.04H64.041C65.666 31.04 66.9655 30.6371 67.9042 29.8424C68.8428 29.0482 69.4412 27.8606 69.6834 26.3139L72.6413 5.62747C72.8787 4.09137 72.6365 2.92173 71.9221 2.14813C71.2029 1.36503 70.004 0.967938 68.3594 0.967938H66.0958L66.7768 1.4548L63.0435 7.115L62.0641 6.41533C61.9872 6.36041 61.8977 6.31342 61.7954 6.27487L58.2921 31.04H58.2926ZM64.041 31.4947H57.7637L61.4117 5.70563L61.6555 5.75949C61.9226 5.81863 62.151 5.91526 62.3344 6.04622L62.9222 6.46602L66.1525 1.56833L65.6199 1.18761C65.5054 1.10629 65.3803 1.0218 65.2377 0.930973L64.5827 0.512756H68.36C70.1402 0.512756 71.4536 0.960016 72.2639 1.84186C73.0759 2.72213 73.3568 4.01797 73.0982 5.69348L70.1397 26.3805C69.88 28.0407 69.2292 29.3207 68.2047 30.1877C67.1802 31.0553 65.7794 31.4952 64.0415 31.4952" fill="#00CC73"/>
<path d="M63.2261 0.509062C62.6468 0.295729 62.0367 0.173221 61.4373 0.136785C60.8373 0.10035 60.2225 0.109326 59.595 0.185365C58.4614 0.322659 56.8263 0.738236 54.6904 1.4321C52.6186 2.10536 51.1707 2.52517 49.9262 2.68833C50.1102 3.37111 50.205 4.14206 50.205 5.00332C50.205 5.74682 50.125 6.54946 49.9671 7.41388C50.0206 7.40754 49.8483 7.40121 49.9066 7.39381C50.8177 7.28345 51.6429 7.14035 52.3791 6.94233L52.3902 6.93916C53.1985 11.9176 54.4938 25.0651 47.2158 31.5359H52.8243C58.2276 23.8569 57.0441 10.9576 56.5677 5.72358L56.6085 5.71144C57.9526 5.26576 59.1493 4.96847 60.1817 4.84332C61.1739 4.72345 61.971 4.86655 62.5551 5.29744L65.0016 1.47064C64.4175 1.03975 63.8255 0.719226 63.2255 0.508533" fill="#00CC73"/>
<path d="M30.8251 19.7259C30.0322 22.1001 29.1328 23.934 28.1268 25.2092C26.9412 26.6968 25.7212 27.4514 24.4667 27.4535C23.8036 27.4545 23.2482 27.2243 22.8189 26.7622C22.3536 26.2807 22.1039 25.6449 22.1055 24.8924C22.1071 24.1595 22.3414 23.407 22.8088 22.6149C23.9054 20.7419 26.1128 19.0981 29.4132 17.684L28.8826 13.6729C24.9044 13.3328 22.8995 12.1795 22.9026 10.231C22.9042 9.47855 23.1385 8.68752 23.624 7.83789C24.0914 6.98825 24.702 6.23472 25.4201 5.59683C26.2819 4.84277 27.035 4.45571 27.6626 4.45465C28.1104 4.45359 28.3611 4.60779 28.4501 4.91617C28.4857 5.0899 28.5031 5.24409 28.5031 5.37927C28.5016 6.17029 28.0336 7.4635 27.0801 9.25888L30.356 11.4133C30.3921 11.4133 30.5898 11.0659 30.9136 10.3514C31.813 8.42086 32.264 6.66455 32.2672 5.10204C32.2709 2.98033 31.3773 1.51604 29.569 0.689635C29.0141 0.459404 28.4406 0.344288 27.8311 0.345872C26.4886 0.348512 25.1297 0.841186 23.7692 1.80858L23.5572 2.20145C22.2619 4.60356 20.8796 8.07234 19.4333 12.5476C19.4841 12.6912 19.5387 12.8343 19.6002 12.9764C20.2966 14.4987 21.495 15.6927 23.2143 16.5191C21.3837 17.892 20.0369 19.4186 19.2096 21.0788C18.5619 22.353 18.2551 23.6267 18.2529 24.9193C18.2508 26.0383 18.4644 27.0601 18.9287 27.9852C19.5716 29.3534 20.5372 30.3546 21.8267 30.9888C22.4537 31.3156 22.9906 31.4883 23.4565 31.5453C23.9224 31.5828 24.2626 31.6209 24.4778 31.6209C25.6247 31.6187 26.7727 31.2887 27.9207 30.6498C29.1943 29.9533 30.3793 28.8322 31.4754 27.3061C32.661 25.6834 33.6505 23.5987 34.4614 21.0704L30.8256 19.727L30.8251 19.7259Z" fill="#00CC73"/>
<path d="M41.829 8.20489C43.1021 6.1967 44.3015 4.9637 45.4266 4.52595C45.4637 4.68489 45.4818 4.92357 45.4818 5.24199C45.4818 6.31552 45.1866 7.68792 44.5961 9.33862C43.2309 13.1564 40.574 17.7104 36.6626 23.0199C37.7326 16.8951 39.4488 11.9435 41.8285 8.20542M43.8769 25.7178C43.1376 26.776 42.3638 27.4075 41.8078 27.4075C41.4108 27.4075 40.8448 26.042 40.6301 24.4621C43.224 20.8903 45.2793 17.5129 46.8285 14.3298C48.5812 10.5912 49.4483 7.58865 49.4483 5.28212C49.4483 2.97558 48.7471 1.48383 47.3447 0.668519C46.8094 0.370169 46.2195 0.231293 45.5369 0.231293C43.3596 0.290963 41.1644 1.98126 38.9135 5.28212C37.5853 7.2507 36.3674 9.67657 35.2973 12.5603C35.3895 10.6709 35.4817 9.00067 35.5739 7.54905C35.6662 6.09743 35.7584 4.9637 35.8506 4.14839C35.9243 3.33307 35.9614 2.89585 35.9614 2.87578L32.3468 2.45704C32.696 3.18945 32.8736 4.04225 32.872 5.01704C32.8688 6.6635 32.3945 8.51274 31.4622 10.5141C31.4458 10.5505 31.4304 10.5838 31.4145 10.6181C31.3483 11.8817 31.3027 13.2267 31.2566 14.6677C31.2099 16.1505 31.1765 17.6903 31.167 19.275L35.2045 20.7673L35.054 21.2367C34.2166 23.8474 33.181 26.0071 31.9752 27.6568C31.7966 27.905 31.6154 28.1426 31.4315 28.3707C31.5062 29.5007 31.5942 30.6154 31.6991 31.7096L35.6656 31.6103C35.8109 29.3175 36.0287 27.1609 36.317 25.1575C36.4023 25.7521 36.537 26.4581 36.7505 27.1768C37.9372 31.1694 40.4277 31.765 41.8067 31.765C46.4745 31.765 48.9395 25.6676 49.205 24.9722L45.1192 23.417C45.115 23.4286 44.6566 24.5999 43.8759 25.7178" fill="#00CC73"/>
</svg>
