<svg width="725" height="489" viewBox="0 0 725 489" fill="none" xmlns="http://www.w3.org/2000/svg">
<path d="M537.311 134.202C538.399 134.394 539.436 133.667 539.627 132.579L542.748 114.852C542.939 113.764 542.212 112.727 541.125 112.535C540.037 112.344 539 113.071 538.808 114.158L536.035 129.916L520.277 127.143C519.189 126.951 518.152 127.678 517.96 128.766C517.769 129.853 518.496 130.891 519.583 131.082L537.311 134.202ZM376.937 42.3687L376.751 44.36C391.206 45.7083 416.188 46.893 445.006 58.266C473.784 69.6229 506.448 91.1752 536.02 133.38L537.658 132.233L539.296 131.085C509.261 88.2182 475.959 66.181 446.475 54.5452C417.031 42.9255 391.455 41.7141 377.122 40.3773L376.937 42.3687Z" fill="#00CC73"/>
<path d="M552.152 332.726C552.551 333.757 553.709 334.269 554.739 333.87L571.527 327.376C572.557 326.977 573.069 325.819 572.671 324.789C572.272 323.759 571.114 323.246 570.084 323.645L555.161 329.418L549.388 314.496C548.99 313.466 547.832 312.953 546.802 313.352C545.771 313.751 545.259 314.909 545.658 315.939L552.152 332.726ZM547.843 147.97L546.042 148.841C552.362 161.912 564.264 183.908 569.428 214.456C574.586 244.96 573.026 284.063 552.188 331.196L554.018 332.005L555.847 332.814C577.011 284.942 578.657 245.042 573.373 213.789C568.096 182.578 555.909 160.06 549.643 147.1L547.843 147.97Z" fill="#00CC73"/>
<path d="M391.11 445.285C390.434 446.159 390.595 447.416 391.469 448.091L405.712 459.098C406.586 459.773 407.842 459.612 408.517 458.738C409.193 457.864 409.032 456.608 408.158 455.933L395.498 446.149L405.281 433.489C405.957 432.615 405.796 431.359 404.922 430.683C404.048 430.008 402.792 430.169 402.116 431.043L391.11 445.285ZM546.991 346.017L545.315 344.926C537.398 357.096 524.732 378.661 501.261 398.884C477.824 419.079 443.554 437.973 392.438 444.525L392.692 446.508L392.946 448.492C444.863 441.838 479.86 422.605 503.873 401.915C527.852 381.252 540.819 359.174 548.668 347.107L546.991 346.017Z" fill="#00CC73"/>
<path d="M207.076 364.411C205.981 364.262 204.973 365.028 204.824 366.123L202.395 383.958C202.246 385.053 203.012 386.061 204.106 386.21C205.201 386.359 206.209 385.592 206.358 384.498L208.517 368.644L224.371 370.804C225.465 370.953 226.474 370.186 226.623 369.092C226.772 367.997 226.005 366.989 224.911 366.84L207.076 364.411ZM370.896 449.945L371.005 447.948C356.508 447.162 331.499 446.949 302.261 436.704C273.063 426.474 239.586 406.207 208.398 365.182L206.806 366.393L205.213 367.603C236.891 409.271 271.024 429.997 300.938 440.479C330.811 450.946 356.414 451.163 370.788 451.942L370.896 449.945Z" fill="#00CC73"/>
<path d="M185.729 160.544C185.309 159.523 184.14 159.035 183.119 159.455L166.472 166.303C165.451 166.723 164.963 167.892 165.383 168.913C165.804 169.935 166.972 170.422 167.994 170.002L182.791 163.915L188.878 178.713C189.298 179.734 190.467 180.221 191.488 179.801C192.51 179.381 192.997 178.212 192.577 177.191L185.729 160.544ZM193.939 345.168L195.721 344.26C189.127 331.325 176.763 309.585 170.955 279.154C165.154 248.765 165.888 209.637 185.726 162.075L183.88 161.305L182.034 160.535C161.885 208.843 161.083 248.768 167.026 279.904C172.96 310.996 185.619 333.252 192.158 346.076L193.939 345.168Z" fill="#00CC73"/>
<path d="M354.514 44.806C355.209 43.9472 355.075 42.6879 354.217 41.9932L340.222 30.673C339.363 29.9783 338.104 30.1113 337.409 30.9701C336.715 31.8289 336.848 33.0882 337.706 33.7829L350.146 43.8454L340.084 56.2851C339.389 57.1439 339.522 58.4032 340.381 59.0979C341.24 59.7925 342.499 59.6595 343.194 58.8007L354.514 44.806ZM196.466 140.588L198.118 141.715C206.302 129.724 219.445 108.446 243.359 88.749C267.239 69.0798 301.92 50.9513 353.169 45.5371L352.959 43.5482L352.749 41.5593C300.697 47.0584 265.282 65.5093 240.815 85.6614C216.383 105.786 202.929 127.571 194.814 139.46L196.466 140.588Z" fill="#00CC73"/>
<path d="M494.647 57.3137V45.6774H502.215V47.4444H496.755V50.6035H501.823V52.3705H496.755V55.5467H502.26V57.3137H494.647ZM497.647 44.5296L498.919 41.933H500.931L499.187 44.5296H497.647ZM508.633 48.5864V50.1774H503.616V48.5864H508.633ZM504.854 46.4955H506.911V54.6887C506.911 54.9652 506.953 55.1774 507.036 55.3251C507.123 55.469 507.237 55.5675 507.377 55.6205C507.517 55.6736 507.672 55.7001 507.843 55.7001C507.972 55.7001 508.089 55.6906 508.195 55.6717C508.305 55.6527 508.388 55.6357 508.445 55.6205L508.792 57.2285C508.682 57.2664 508.525 57.308 508.32 57.3535C508.119 57.3989 507.873 57.4255 507.581 57.433C507.066 57.4482 506.602 57.3705 506.189 57.2001C505.776 57.0258 505.449 56.7569 505.206 56.3933C504.968 56.0296 504.85 55.5751 504.854 55.0296V46.4955ZM515.915 53.6433V48.5864H517.972V57.3137H515.978V55.7626H515.887C515.69 56.2512 515.366 56.6508 514.915 56.9614C514.468 57.2721 513.917 57.4274 513.262 57.4274C512.69 57.4274 512.184 57.3005 511.745 57.0467C511.309 56.7891 510.968 56.416 510.722 55.9274C510.476 55.4349 510.353 54.8402 510.353 54.1433V48.5864H512.41V53.8251C512.41 54.3781 512.561 54.8175 512.864 55.1433C513.167 55.469 513.565 55.6319 514.057 55.6319C514.36 55.6319 514.654 55.558 514.938 55.4103C515.222 55.2626 515.455 55.0429 515.637 54.7512C515.822 54.4558 515.915 54.0864 515.915 53.6433ZM523.326 57.4671C522.64 57.4671 522.026 57.291 521.485 56.9387C520.943 56.5864 520.515 56.0751 520.201 55.4046C519.886 54.7342 519.729 53.9198 519.729 52.9614C519.729 51.9918 519.888 51.1736 520.206 50.5069C520.528 49.8364 520.962 49.3308 521.508 48.9899C522.053 48.6452 522.661 48.4728 523.331 48.4728C523.843 48.4728 524.263 48.5599 524.593 48.7342C524.922 48.9046 525.184 49.1111 525.377 49.3535C525.57 49.5921 525.72 49.8175 525.826 50.0296H525.911V45.6774H527.973V57.3137H525.951V55.9387H525.826C525.72 56.1508 525.566 56.3762 525.366 56.6149C525.165 56.8497 524.9 57.0505 524.57 57.2171C524.241 57.3838 523.826 57.4671 523.326 57.4671ZM523.9 55.7796C524.335 55.7796 524.706 55.6622 525.013 55.4274C525.32 55.1887 525.553 54.8573 525.712 54.433C525.871 54.0088 525.951 53.5145 525.951 52.9501C525.951 52.3857 525.871 51.8952 525.712 51.4785C525.557 51.0618 525.326 50.738 525.019 50.5069C524.716 50.2758 524.343 50.1603 523.9 50.1603C523.441 50.1603 523.059 50.2796 522.752 50.5183C522.445 50.7569 522.214 51.0864 522.059 51.5069C521.903 51.9274 521.826 52.4084 521.826 52.9501C521.826 53.4955 521.903 53.9823 522.059 54.4103C522.218 54.8346 522.451 55.1698 522.758 55.416C523.068 55.6584 523.449 55.7796 523.9 55.7796ZM534.029 57.4842C533.154 57.4842 532.398 57.3024 531.762 56.9387C531.129 56.5713 530.642 56.0524 530.302 55.3819C529.961 54.7077 529.79 53.9141 529.79 53.0012C529.79 52.1035 529.961 51.3156 530.302 50.6376C530.646 49.9558 531.127 49.4255 531.745 49.0467C532.362 48.6641 533.088 48.4728 533.921 48.4728C534.459 48.4728 534.966 48.5599 535.444 48.7342C535.925 48.9046 536.349 49.1698 536.716 49.5296C537.088 49.8895 537.379 50.3478 537.591 50.9046C537.803 51.4577 537.91 52.1168 537.91 52.8819V53.5126H530.756V52.1262H535.938C535.934 51.7323 535.849 51.3819 535.682 51.0751C535.516 50.7645 535.283 50.5202 534.983 50.3421C534.688 50.1641 534.343 50.0751 533.949 50.0751C533.529 50.0751 533.16 50.1774 532.841 50.3819C532.523 50.5827 532.275 50.8478 532.097 51.1774C531.923 51.5031 531.834 51.8611 531.83 52.2512V53.4614C531.83 53.969 531.923 54.4046 532.108 54.7683C532.294 55.1281 532.553 55.4046 532.887 55.5978C533.22 55.7872 533.61 55.8819 534.057 55.8819C534.357 55.8819 534.627 55.8402 534.87 55.7569C535.112 55.6698 535.322 55.5429 535.5 55.3762C535.678 55.2096 535.813 55.0031 535.904 54.7569L537.824 54.9728C537.703 55.4804 537.472 55.9236 537.131 56.3024C536.794 56.6774 536.362 56.969 535.836 57.1774C535.309 57.3819 534.707 57.4842 534.029 57.4842ZM546.857 57.4671C546.171 57.4671 545.558 57.291 545.016 56.9387C544.474 56.5864 544.046 56.0751 543.732 55.4046C543.418 54.7342 543.26 53.9198 543.26 52.9614C543.26 51.9918 543.419 51.1736 543.738 50.5069C544.06 49.8364 544.493 49.3308 545.039 48.9899C545.584 48.6452 546.192 48.4728 546.863 48.4728C547.374 48.4728 547.794 48.5599 548.124 48.7342C548.454 48.9046 548.715 49.1111 548.908 49.3535C549.101 49.5921 549.251 49.8175 549.357 50.0296H549.442V45.6774H551.505V57.3137H549.482V55.9387H549.357C549.251 56.1508 549.098 56.3762 548.897 56.6149C548.696 56.8497 548.431 57.0505 548.101 57.2171C547.772 57.3838 547.357 57.4671 546.857 57.4671ZM547.431 55.7796C547.866 55.7796 548.238 55.6622 548.544 55.4274C548.851 55.1887 549.084 54.8573 549.243 54.433C549.402 54.0088 549.482 53.5145 549.482 52.9501C549.482 52.3857 549.402 51.8952 549.243 51.4785C549.088 51.0618 548.857 50.738 548.55 50.5069C548.247 50.2758 547.874 50.1603 547.431 50.1603C546.973 50.1603 546.59 50.2796 546.283 50.5183C545.976 50.7569 545.745 51.0864 545.59 51.5069C545.435 51.9274 545.357 52.4084 545.357 52.9501C545.357 53.4955 545.435 53.9823 545.59 54.4103C545.749 54.8346 545.982 55.1698 546.289 55.416C546.599 55.6584 546.98 55.7796 547.431 55.7796ZM559.259 53.6433V48.5864H561.316V57.3137H559.321V55.7626H559.231C559.034 56.2512 558.71 56.6508 558.259 56.9614C557.812 57.2721 557.261 57.4274 556.606 57.4274C556.034 57.4274 555.528 57.3005 555.089 57.0467C554.653 56.7891 554.312 56.416 554.066 55.9274C553.82 55.4349 553.696 54.8402 553.696 54.1433V48.5864H555.753V53.8251C555.753 54.3781 555.905 54.8175 556.208 55.1433C556.511 55.469 556.909 55.6319 557.401 55.6319C557.704 55.6319 557.998 55.558 558.282 55.4103C558.566 55.2626 558.799 55.0429 558.981 54.7512C559.166 54.4558 559.259 54.0864 559.259 53.6433ZM567.491 57.3137V45.6774H569.547V50.0296H569.633C569.739 49.8175 569.888 49.5921 570.081 49.3535C570.275 49.1111 570.536 48.9046 570.866 48.7342C571.195 48.5599 571.616 48.4728 572.127 48.4728C572.801 48.4728 573.409 48.6452 573.951 48.9899C574.496 49.3308 574.928 49.8364 575.246 50.5069C575.568 51.1736 575.729 51.9918 575.729 52.9614C575.729 53.9198 575.572 54.7342 575.258 55.4046C574.943 56.0751 574.515 56.5864 573.973 56.9387C573.432 57.291 572.818 57.4671 572.133 57.4671C571.633 57.4671 571.218 57.3838 570.888 57.2171C570.559 57.0505 570.294 56.8497 570.093 56.6149C569.896 56.3762 569.742 56.1508 569.633 55.9387H569.513V57.3137H567.491ZM569.508 52.9501C569.508 53.5145 569.587 54.0088 569.746 54.433C569.909 54.8573 570.142 55.1887 570.445 55.4274C570.752 55.6622 571.123 55.7796 571.559 55.7796C572.013 55.7796 572.394 55.6584 572.701 55.416C573.008 55.1698 573.239 54.8346 573.394 54.4103C573.553 53.9823 573.633 53.4955 573.633 52.9501C573.633 52.4084 573.555 51.9274 573.4 51.5069C573.244 51.0864 573.013 50.7569 572.706 50.5183C572.4 50.2796 572.017 50.1603 571.559 50.1603C571.119 50.1603 570.746 50.2758 570.439 50.5069C570.133 50.738 569.9 51.0618 569.741 51.4785C569.585 51.8952 569.508 52.3857 569.508 52.9501ZM581.341 57.4842C580.466 57.4842 579.711 57.3024 579.074 56.9387C578.442 56.5713 577.955 56.0524 577.614 55.3819C577.273 54.7077 577.103 53.9141 577.103 53.0012C577.103 52.1035 577.273 51.3156 577.614 50.6376C577.959 49.9558 578.44 49.4255 579.057 49.0467C579.675 48.6641 580.4 48.4728 581.233 48.4728C581.771 48.4728 582.279 48.5599 582.756 48.7342C583.237 48.9046 583.661 49.1698 584.029 49.5296C584.4 49.8895 584.692 50.3478 584.904 50.9046C585.116 51.4577 585.222 52.1168 585.222 52.8819V53.5126H578.069V52.1262H583.25C583.247 51.7323 583.161 51.3819 582.995 51.0751C582.828 50.7645 582.595 50.5202 582.296 50.3421C582 50.1641 581.656 50.0751 581.262 50.0751C580.841 50.0751 580.472 50.1774 580.154 50.3819C579.836 50.5827 579.588 50.8478 579.41 51.1774C579.235 51.5031 579.146 51.8611 579.142 52.2512V53.4614C579.142 53.969 579.235 54.4046 579.421 54.7683C579.607 55.1281 579.866 55.4046 580.199 55.5978C580.533 55.7872 580.923 55.8819 581.37 55.8819C581.669 55.8819 581.94 55.8402 582.182 55.7569C582.425 55.6698 582.635 55.5429 582.813 55.3762C582.991 55.2096 583.125 55.0031 583.216 54.7569L585.137 54.9728C585.016 55.4804 584.785 55.9236 584.444 56.3024C584.107 56.6774 583.675 56.969 583.148 57.1774C582.622 57.3819 582.019 57.4842 581.341 57.4842ZM593.86 50.8933L591.985 51.0978C591.932 50.9084 591.839 50.7304 591.706 50.5637C591.578 50.3971 591.403 50.2626 591.184 50.1603C590.964 50.058 590.695 50.0069 590.377 50.0069C589.949 50.0069 589.589 50.0997 589.297 50.2853C589.009 50.4709 588.867 50.7114 588.871 51.0069C588.867 51.2607 588.96 51.4671 589.15 51.6262C589.343 51.7853 589.661 51.916 590.104 52.0183L591.593 52.3364C592.419 52.5145 593.032 52.7967 593.434 53.183C593.839 53.5694 594.044 54.0751 594.047 54.7001C594.044 55.2493 593.883 55.7342 593.564 56.1546C593.25 56.5713 592.812 56.8971 592.252 57.1319C591.691 57.3668 591.047 57.4842 590.32 57.4842C589.252 57.4842 588.392 57.2607 587.741 56.8137C587.089 56.363 586.701 55.7361 586.576 54.933L588.581 54.7399C588.672 55.1338 588.866 55.4311 589.161 55.6319C589.456 55.8327 589.841 55.933 590.314 55.933C590.803 55.933 591.195 55.8327 591.491 55.6319C591.79 55.4311 591.939 55.183 591.939 54.8876C591.939 54.6376 591.843 54.4311 591.65 54.2683C591.46 54.1054 591.165 53.9804 590.763 53.8933L589.275 53.5808C588.437 53.4065 587.818 53.113 587.417 52.7001C587.015 52.2834 586.816 51.7569 586.82 51.1205C586.816 50.5827 586.962 50.1168 587.258 49.7228C587.557 49.3251 587.972 49.0183 588.502 48.8024C589.036 48.5827 589.651 48.4728 590.348 48.4728C591.371 48.4728 592.176 48.6906 592.763 49.1262C593.354 49.5618 593.72 50.1508 593.86 50.8933ZM599.55 57.4842C598.698 57.4842 597.959 57.2967 597.334 56.9217C596.709 56.5467 596.224 56.0221 595.88 55.3478C595.539 54.6736 595.368 53.8857 595.368 52.9842C595.368 52.0827 595.539 51.2929 595.88 50.6149C596.224 49.9368 596.709 49.4103 597.334 49.0353C597.959 48.6603 598.698 48.4728 599.55 48.4728C600.402 48.4728 601.141 48.6603 601.766 49.0353C602.391 49.4103 602.874 49.9368 603.215 50.6149C603.56 51.2929 603.732 52.0827 603.732 52.9842C603.732 53.8857 603.56 54.6736 603.215 55.3478C602.874 56.0221 602.391 56.5467 601.766 56.9217C601.141 57.2967 600.402 57.4842 599.55 57.4842ZM599.562 55.8364C600.024 55.8364 600.41 55.7096 600.721 55.4558C601.031 55.1982 601.262 54.8535 601.414 54.4217C601.569 53.9899 601.647 53.5088 601.647 52.9785C601.647 52.4444 601.569 51.9614 601.414 51.5296C601.262 51.094 601.031 50.7474 600.721 50.4899C600.41 50.2323 600.024 50.1035 599.562 50.1035C599.088 50.1035 598.694 50.2323 598.38 50.4899C598.069 50.7474 597.836 51.094 597.681 51.5296C597.529 51.9614 597.454 52.4444 597.454 52.9785C597.454 53.5088 597.529 53.9899 597.681 54.4217C597.836 54.8535 598.069 55.1982 598.38 55.4558C598.694 55.7096 599.088 55.8364 599.562 55.8364ZM605.478 57.3137V48.5864H607.535V57.3137H605.478ZM606.512 47.3478C606.186 47.3478 605.906 47.2399 605.671 47.0239C605.436 46.8043 605.319 46.541 605.319 46.2342C605.319 45.9236 605.436 45.6603 605.671 45.4444C605.906 45.2247 606.186 45.1149 606.512 45.1149C606.841 45.1149 607.122 45.2247 607.353 45.4444C607.588 45.6603 607.705 45.9236 607.705 46.2342C607.705 46.541 607.588 46.8043 607.353 47.0239C607.122 47.2399 606.841 47.3478 606.512 47.3478ZM611.706 52.2001V57.3137H609.65V48.5864H611.616V50.0694H611.718C611.919 49.5808 612.239 49.1925 612.678 48.9046C613.121 48.6168 613.669 48.4728 614.32 48.4728C614.922 48.4728 615.447 48.6016 615.894 48.8592C616.345 49.1168 616.693 49.4899 616.939 49.9785C617.189 50.4671 617.312 51.0599 617.309 51.7569V57.3137H615.252V52.0751C615.252 51.4918 615.1 51.0353 614.797 50.7058C614.498 50.3762 614.083 50.2114 613.553 50.2114C613.193 50.2114 612.873 50.291 612.593 50.4501C612.316 50.6054 612.098 50.8308 611.939 51.1262C611.784 51.4217 611.706 51.7796 611.706 52.2001Z" fill="white"/>
<path d="M597.59 226.314H593.647V214.677H597.669C598.825 214.677 599.817 214.91 600.647 215.376C601.48 215.838 602.12 216.503 602.567 217.371C603.014 218.238 603.238 219.276 603.238 220.484C603.238 221.696 603.012 222.738 602.562 223.609C602.115 224.48 601.469 225.149 600.624 225.615C599.783 226.081 598.772 226.314 597.59 226.314ZM595.755 224.49H597.488C598.298 224.49 598.974 224.342 599.516 224.047C600.058 223.747 600.465 223.302 600.738 222.711C601.01 222.117 601.147 221.374 601.147 220.484C601.147 219.594 601.01 218.855 600.738 218.268C600.465 217.677 600.062 217.236 599.527 216.944C598.997 216.649 598.338 216.501 597.55 216.501H595.755V224.49ZM609.013 226.484C608.138 226.484 607.383 226.302 606.746 225.939C606.114 225.571 605.627 225.052 605.286 224.382C604.945 223.708 604.775 222.914 604.775 222.001C604.775 221.103 604.945 220.316 605.286 219.638C605.631 218.956 606.112 218.425 606.729 218.047C607.347 217.664 608.072 217.473 608.905 217.473C609.443 217.473 609.951 217.56 610.428 217.734C610.909 217.905 611.333 218.17 611.701 218.53C612.072 218.889 612.364 219.348 612.576 219.905C612.788 220.458 612.894 221.117 612.894 221.882V222.513H605.741V221.126H610.922C610.919 220.732 610.833 220.382 610.667 220.075C610.5 219.764 610.267 219.52 609.968 219.342C609.672 219.164 609.328 219.075 608.934 219.075C608.513 219.075 608.144 219.177 607.826 219.382C607.508 219.583 607.259 219.848 607.081 220.177C606.907 220.503 606.818 220.861 606.814 221.251V222.461C606.814 222.969 606.907 223.405 607.093 223.768C607.278 224.128 607.538 224.405 607.871 224.598C608.205 224.787 608.595 224.882 609.042 224.882C609.341 224.882 609.612 224.84 609.854 224.757C610.097 224.67 610.307 224.543 610.485 224.376C610.663 224.21 610.797 224.003 610.888 223.757L612.809 223.973C612.687 224.48 612.456 224.924 612.116 225.302C611.778 225.677 611.347 225.969 610.82 226.177C610.294 226.382 609.691 226.484 609.013 226.484ZM608.059 216.439L609.331 213.842H611.343L609.598 216.439H608.059ZM619.054 217.586V219.177H613.895V217.586H619.054ZM615.185 226.314V216.763C615.185 216.175 615.306 215.687 615.549 215.297C615.795 214.907 616.124 214.615 616.537 214.422C616.95 214.228 617.409 214.132 617.912 214.132C618.268 214.132 618.585 214.16 618.861 214.217C619.138 214.274 619.342 214.325 619.475 214.371L619.066 215.961C618.979 215.935 618.869 215.908 618.736 215.882C618.604 215.852 618.456 215.836 618.293 215.836C617.91 215.836 617.64 215.929 617.481 216.115C617.325 216.297 617.248 216.558 617.248 216.899V226.314H615.185ZM620.665 226.314V217.586H622.722V226.314H620.665ZM621.699 216.348C621.374 216.348 621.093 216.24 620.858 216.024C620.624 215.804 620.506 215.541 620.506 215.234C620.506 214.924 620.624 214.66 620.858 214.444C621.093 214.225 621.374 214.115 621.699 214.115C622.029 214.115 622.309 214.225 622.54 214.444C622.775 214.66 622.892 214.924 622.892 215.234C622.892 215.541 622.775 215.804 622.54 216.024C622.309 216.24 622.029 216.348 621.699 216.348ZM626.894 221.2V226.314H624.837V217.586H626.803V219.069H626.905C627.106 218.581 627.426 218.193 627.866 217.905C628.309 217.617 628.856 217.473 629.508 217.473C630.11 217.473 630.634 217.602 631.081 217.859C631.532 218.117 631.881 218.49 632.127 218.978C632.377 219.467 632.5 220.06 632.496 220.757V226.314H630.439V221.075C630.439 220.492 630.288 220.035 629.985 219.706C629.686 219.376 629.271 219.211 628.741 219.211C628.381 219.211 628.061 219.291 627.78 219.45C627.504 219.605 627.286 219.831 627.127 220.126C626.972 220.422 626.894 220.78 626.894 221.2ZM634.587 226.314V217.586H636.644V226.314H634.587ZM635.621 216.348C635.295 216.348 635.015 216.24 634.78 216.024C634.545 215.804 634.428 215.541 634.428 215.234C634.428 214.924 634.545 214.66 634.78 214.444C635.015 214.225 635.295 214.115 635.621 214.115C635.951 214.115 636.231 214.225 636.462 214.444C636.697 214.66 636.814 214.924 636.814 215.234C636.814 215.541 636.697 215.804 636.462 216.024C636.231 216.24 635.951 216.348 635.621 216.348ZM643.117 217.586V219.177H638.1V217.586H643.117ZM639.339 215.496H641.395V223.689C641.395 223.965 641.437 224.177 641.52 224.325C641.607 224.469 641.721 224.568 641.861 224.621C642.001 224.674 642.157 224.7 642.327 224.7C642.456 224.7 642.573 224.691 642.679 224.672C642.789 224.653 642.873 224.636 642.929 224.621L643.276 226.228C643.166 226.266 643.009 226.308 642.804 226.353C642.604 226.399 642.357 226.425 642.066 226.433C641.551 226.448 641.087 226.371 640.674 226.2C640.261 226.026 639.933 225.757 639.691 225.393C639.452 225.03 639.335 224.575 639.339 224.03V215.496ZM644.837 226.314V217.586H646.894V226.314H644.837ZM645.871 216.348C645.545 216.348 645.265 216.24 645.03 216.024C644.795 215.804 644.678 215.541 644.678 215.234C644.678 214.924 644.795 214.66 645.03 214.444C645.265 214.225 645.545 214.115 645.871 214.115C646.201 214.115 646.481 214.225 646.712 214.444C646.947 214.66 647.064 214.924 647.064 215.234C647.064 215.541 646.947 215.804 646.712 216.024C646.481 216.24 646.201 216.348 645.871 216.348ZM652.816 226.484C651.964 226.484 651.225 226.297 650.6 225.922C649.975 225.547 649.49 225.022 649.145 224.348C648.804 223.674 648.634 222.886 648.634 221.984C648.634 221.083 648.804 220.293 649.145 219.615C649.49 218.937 649.975 218.41 650.6 218.035C651.225 217.66 651.964 217.473 652.816 217.473C653.668 217.473 654.407 217.66 655.032 218.035C655.657 218.41 656.14 218.937 656.481 219.615C656.825 220.293 656.998 221.083 656.998 221.984C656.998 222.886 656.825 223.674 656.481 224.348C656.14 225.022 655.657 225.547 655.032 225.922C654.407 226.297 653.668 226.484 652.816 226.484ZM652.827 224.836C653.289 224.836 653.676 224.71 653.986 224.456C654.297 224.198 654.528 223.853 654.679 223.422C654.835 222.99 654.912 222.509 654.912 221.978C654.912 221.444 654.835 220.961 654.679 220.53C654.528 220.094 654.297 219.747 653.986 219.49C653.676 219.232 653.289 219.103 652.827 219.103C652.354 219.103 651.96 219.232 651.645 219.49C651.335 219.747 651.102 220.094 650.946 220.53C650.795 220.961 650.719 221.444 650.719 221.978C650.719 222.509 650.795 222.99 650.946 223.422C651.102 223.853 651.335 224.198 651.645 224.456C651.96 224.71 652.354 224.836 652.827 224.836ZM660.8 221.2V226.314H658.743V217.586H660.709V219.069H660.812C661.012 218.581 661.332 218.193 661.772 217.905C662.215 217.617 662.762 217.473 663.414 217.473C664.016 217.473 664.541 217.602 664.988 217.859C665.438 218.117 665.787 218.49 666.033 218.978C666.283 219.467 666.406 220.06 666.402 220.757V226.314H664.346V221.075C664.346 220.492 664.194 220.035 663.891 219.706C663.592 219.376 663.177 219.211 662.647 219.211C662.287 219.211 661.967 219.291 661.687 219.45C661.41 219.605 661.192 219.831 661.033 220.126C660.878 220.422 660.8 220.78 660.8 221.2ZM675.701 226.467C675.015 226.467 674.401 226.291 673.86 225.939C673.318 225.586 672.89 225.075 672.576 224.405C672.261 223.734 672.104 222.92 672.104 221.961C672.104 220.992 672.263 220.174 672.581 219.507C672.903 218.836 673.337 218.331 673.883 217.99C674.428 217.645 675.036 217.473 675.706 217.473C676.218 217.473 676.638 217.56 676.968 217.734C677.297 217.905 677.559 218.111 677.752 218.353C677.945 218.592 678.095 218.818 678.201 219.03H678.286V214.677H680.348V226.314H678.326V224.939H678.201C678.095 225.151 677.941 225.376 677.741 225.615C677.54 225.85 677.275 226.05 676.945 226.217C676.616 226.384 676.201 226.467 675.701 226.467ZM676.275 224.78C676.71 224.78 677.081 224.662 677.388 224.427C677.695 224.189 677.928 223.857 678.087 223.433C678.246 223.009 678.326 222.514 678.326 221.95C678.326 221.386 678.246 220.895 678.087 220.478C677.932 220.062 677.701 219.738 677.394 219.507C677.091 219.276 676.718 219.16 676.275 219.16C675.816 219.16 675.434 219.28 675.127 219.518C674.82 219.757 674.589 220.086 674.434 220.507C674.278 220.927 674.201 221.408 674.201 221.95C674.201 222.496 674.278 222.982 674.434 223.41C674.593 223.835 674.826 224.17 675.133 224.416C675.443 224.658 675.824 224.78 676.275 224.78ZM686.404 226.484C685.529 226.484 684.773 226.302 684.137 225.939C683.504 225.571 683.017 225.052 682.677 224.382C682.336 223.708 682.165 222.914 682.165 222.001C682.165 221.103 682.336 220.316 682.677 219.638C683.021 218.956 683.502 218.425 684.12 218.047C684.737 217.664 685.463 217.473 686.296 217.473C686.834 217.473 687.341 217.56 687.819 217.734C688.3 217.905 688.724 218.17 689.091 218.53C689.463 218.889 689.754 219.348 689.966 219.905C690.178 220.458 690.285 221.117 690.285 221.882V222.513H683.131V221.126H688.313C688.309 220.732 688.224 220.382 688.057 220.075C687.891 219.764 687.658 219.52 687.358 219.342C687.063 219.164 686.718 219.075 686.324 219.075C685.904 219.075 685.535 219.177 685.216 219.382C684.898 219.583 684.65 219.848 684.472 220.177C684.298 220.503 684.209 220.861 684.205 221.251V222.461C684.205 222.969 684.298 223.405 684.483 223.768C684.669 224.128 684.928 224.405 685.262 224.598C685.595 224.787 685.985 224.882 686.432 224.882C686.732 224.882 687.002 224.84 687.245 224.757C687.487 224.67 687.697 224.543 687.875 224.376C688.053 224.21 688.188 224.003 688.279 223.757L690.199 223.973C690.078 224.48 689.847 224.924 689.506 225.302C689.169 225.677 688.737 225.969 688.211 226.177C687.684 226.382 687.082 226.484 686.404 226.484ZM595.613 233.677V245.314H593.556V233.677H595.613ZM600.239 245.49C599.686 245.49 599.188 245.391 598.745 245.194C598.305 244.994 597.957 244.698 597.699 244.308C597.446 243.918 597.319 243.437 597.319 242.865C597.319 242.372 597.41 241.965 597.591 241.643C597.773 241.321 598.021 241.064 598.336 240.871C598.65 240.677 599.004 240.532 599.398 240.433C599.796 240.331 600.207 240.257 600.631 240.211C601.142 240.158 601.557 240.111 601.875 240.069C602.194 240.024 602.425 239.956 602.569 239.865C602.716 239.77 602.79 239.624 602.79 239.427V239.393C602.79 238.965 602.663 238.634 602.41 238.399C602.156 238.164 601.79 238.047 601.313 238.047C600.809 238.047 600.41 238.157 600.114 238.376C599.822 238.596 599.625 238.855 599.523 239.155L597.603 238.882C597.754 238.352 598.004 237.908 598.353 237.552C598.701 237.193 599.127 236.924 599.631 236.746C600.135 236.564 600.692 236.473 601.302 236.473C601.722 236.473 602.141 236.522 602.557 236.621C602.974 236.719 603.355 236.882 603.699 237.109C604.044 237.333 604.321 237.638 604.529 238.024C604.741 238.41 604.847 238.893 604.847 239.473V245.314H602.87V244.115H602.802C602.677 244.357 602.5 244.585 602.273 244.797C602.05 245.005 601.767 245.174 601.427 245.302C601.089 245.427 600.694 245.49 600.239 245.49ZM600.773 243.978C601.186 243.978 601.544 243.897 601.847 243.734C602.15 243.568 602.383 243.348 602.546 243.075C602.713 242.802 602.796 242.505 602.796 242.183V241.155C602.732 241.208 602.622 241.257 602.466 241.302C602.315 241.348 602.144 241.388 601.955 241.422C601.766 241.456 601.578 241.486 601.392 241.513C601.207 241.539 601.046 241.562 600.91 241.581C600.603 241.622 600.328 241.691 600.086 241.785C599.843 241.88 599.652 242.013 599.512 242.183C599.372 242.35 599.302 242.566 599.302 242.831C599.302 243.21 599.44 243.496 599.716 243.689C599.993 243.882 600.345 243.978 600.773 243.978ZM610.884 248.586V236.586H612.907V238.03H613.026C613.132 237.818 613.282 237.592 613.475 237.353C613.668 237.111 613.929 236.905 614.259 236.734C614.589 236.56 615.009 236.473 615.52 236.473C616.195 236.473 616.803 236.645 617.344 236.99C617.89 237.331 618.321 237.836 618.64 238.507C618.962 239.174 619.123 239.992 619.123 240.961C619.123 241.92 618.965 242.734 618.651 243.405C618.337 244.075 617.909 244.586 617.367 244.939C616.825 245.291 616.212 245.467 615.526 245.467C615.026 245.467 614.611 245.384 614.282 245.217C613.952 245.05 613.687 244.85 613.486 244.615C613.289 244.376 613.136 244.151 613.026 243.939H612.941V248.586H610.884ZM612.901 240.95C612.901 241.514 612.981 242.009 613.14 242.433C613.303 242.857 613.535 243.189 613.839 243.427C614.145 243.662 614.517 243.78 614.952 243.78C615.407 243.78 615.787 243.658 616.094 243.416C616.401 243.17 616.632 242.835 616.787 242.41C616.946 241.982 617.026 241.496 617.026 240.95C617.026 240.408 616.948 239.927 616.793 239.507C616.638 239.086 616.407 238.757 616.1 238.518C615.793 238.28 615.41 238.16 614.952 238.16C614.513 238.16 614.14 238.276 613.833 238.507C613.526 238.738 613.293 239.062 613.134 239.478C612.979 239.895 612.901 240.386 612.901 240.95ZM620.884 245.314V236.586H622.878V238.041H622.969C623.128 237.537 623.401 237.149 623.787 236.876C624.178 236.6 624.623 236.461 625.123 236.461C625.236 236.461 625.363 236.467 625.503 236.478C625.647 236.486 625.767 236.499 625.861 236.518V238.41C625.774 238.38 625.636 238.353 625.446 238.331C625.261 238.304 625.081 238.291 624.907 238.291C624.532 238.291 624.195 238.372 623.895 238.535C623.6 238.694 623.367 238.916 623.196 239.2C623.026 239.484 622.941 239.812 622.941 240.183V245.314H620.884ZM630.675 245.484C629.823 245.484 629.084 245.297 628.459 244.922C627.834 244.547 627.349 244.022 627.005 243.348C626.664 242.674 626.493 241.886 626.493 240.984C626.493 240.083 626.664 239.293 627.005 238.615C627.349 237.937 627.834 237.41 628.459 237.035C629.084 236.66 629.823 236.473 630.675 236.473C631.527 236.473 632.266 236.66 632.891 237.035C633.516 237.41 633.999 237.937 634.34 238.615C634.685 239.293 634.857 240.083 634.857 240.984C634.857 241.886 634.685 242.674 634.34 243.348C633.999 244.022 633.516 244.547 632.891 244.922C632.266 245.297 631.527 245.484 630.675 245.484ZM630.687 243.836C631.149 243.836 631.535 243.71 631.846 243.456C632.156 243.198 632.387 242.853 632.539 242.422C632.694 241.99 632.772 241.509 632.772 240.978C632.772 240.444 632.694 239.961 632.539 239.53C632.387 239.094 632.156 238.747 631.846 238.49C631.535 238.232 631.149 238.103 630.687 238.103C630.213 238.103 629.819 238.232 629.505 238.49C629.194 238.747 628.961 239.094 628.806 239.53C628.654 239.961 628.579 240.444 628.579 240.978C628.579 241.509 628.654 241.99 628.806 242.422C628.961 242.853 629.194 243.198 629.505 243.456C629.819 243.71 630.213 243.836 630.687 243.836ZM636.694 245.314V233.677H638.75V238.03H638.836C638.942 237.818 639.091 237.592 639.285 237.353C639.478 237.111 639.739 236.905 640.069 236.734C640.398 236.56 640.819 236.473 641.33 236.473C642.004 236.473 642.612 236.645 643.154 236.99C643.699 237.331 644.131 237.836 644.449 238.507C644.771 239.174 644.932 239.992 644.932 240.961C644.932 241.92 644.775 242.734 644.461 243.405C644.146 244.075 643.718 244.586 643.177 244.939C642.635 245.291 642.021 245.467 641.336 245.467C640.836 245.467 640.421 245.384 640.091 245.217C639.762 245.05 639.497 244.85 639.296 244.615C639.099 244.376 638.946 244.151 638.836 243.939H638.716V245.314H636.694ZM638.711 240.95C638.711 241.514 638.79 242.009 638.949 242.433C639.112 242.857 639.345 243.189 639.648 243.427C639.955 243.662 640.326 243.78 640.762 243.78C641.216 243.78 641.597 243.658 641.904 243.416C642.211 243.17 642.442 242.835 642.597 242.41C642.756 241.982 642.836 241.496 642.836 240.95C642.836 240.408 642.758 239.927 642.603 239.507C642.447 239.086 642.216 238.757 641.91 238.518C641.603 238.28 641.22 238.16 640.762 238.16C640.322 238.16 639.949 238.276 639.642 238.507C639.336 238.738 639.103 239.062 638.944 239.478C638.788 239.895 638.711 240.386 638.711 240.95ZM648.738 233.677V245.314H646.681V233.677H648.738ZM654.716 245.484C653.841 245.484 653.086 245.302 652.449 244.939C651.817 244.571 651.33 244.052 650.989 243.382C650.648 242.708 650.478 241.914 650.478 241.001C650.478 240.103 650.648 239.316 650.989 238.638C651.334 237.956 651.815 237.425 652.432 237.047C653.05 236.664 653.775 236.473 654.608 236.473C655.146 236.473 655.654 236.56 656.131 236.734C656.612 236.905 657.036 237.17 657.404 237.53C657.775 237.889 658.067 238.348 658.279 238.905C658.491 239.458 658.597 240.117 658.597 240.882V241.513H651.444V240.126H656.625C656.622 239.732 656.536 239.382 656.37 239.075C656.203 238.764 655.97 238.52 655.671 238.342C655.375 238.164 655.031 238.075 654.637 238.075C654.216 238.075 653.847 238.177 653.529 238.382C653.211 238.583 652.963 238.848 652.785 239.177C652.61 239.503 652.521 239.861 652.517 240.251V241.461C652.517 241.969 652.61 242.405 652.796 242.768C652.982 243.128 653.241 243.405 653.574 243.598C653.908 243.787 654.298 243.882 654.745 243.882C655.044 243.882 655.315 243.84 655.557 243.757C655.8 243.67 656.01 243.543 656.188 243.376C656.366 243.21 656.5 243.003 656.591 242.757L658.512 242.973C658.391 243.48 658.16 243.924 657.819 244.302C657.482 244.677 657.05 244.969 656.523 245.177C655.997 245.382 655.394 245.484 654.716 245.484ZM653.762 235.439L655.035 232.842H657.046L655.302 235.439H653.762ZM660.337 245.314V236.586H662.303V238.069H662.405C662.587 237.569 662.888 237.179 663.309 236.899C663.729 236.615 664.231 236.473 664.814 236.473C665.405 236.473 665.903 236.617 666.309 236.905C666.718 237.189 667.006 237.577 667.172 238.069H667.263C667.456 237.585 667.782 237.198 668.241 236.91C668.703 236.619 669.25 236.473 669.883 236.473C670.686 236.473 671.341 236.727 671.848 237.234C672.356 237.742 672.61 238.482 672.61 239.456V245.314H670.547V239.774C670.547 239.232 670.403 238.836 670.116 238.586C669.828 238.333 669.475 238.206 669.059 238.206C668.562 238.206 668.174 238.361 667.894 238.672C667.617 238.978 667.479 239.378 667.479 239.871V245.314H665.462V239.689C665.462 239.238 665.326 238.878 665.053 238.609C664.784 238.34 664.432 238.206 663.996 238.206C663.701 238.206 663.432 238.282 663.189 238.433C662.947 238.581 662.754 238.791 662.61 239.064C662.466 239.333 662.394 239.647 662.394 240.007V245.314H660.337ZM677.208 245.49C676.655 245.49 676.157 245.391 675.714 245.194C675.274 244.994 674.926 244.698 674.668 244.308C674.414 243.918 674.287 243.437 674.287 242.865C674.287 242.372 674.378 241.965 674.56 241.643C674.742 241.321 674.99 241.064 675.304 240.871C675.619 240.677 675.973 240.532 676.367 240.433C676.765 240.331 677.176 240.257 677.6 240.211C678.111 240.158 678.526 240.111 678.844 240.069C679.162 240.024 679.393 239.956 679.537 239.865C679.685 239.77 679.759 239.624 679.759 239.427V239.393C679.759 238.965 679.632 238.634 679.378 238.399C679.124 238.164 678.759 238.047 678.282 238.047C677.778 238.047 677.378 238.157 677.083 238.376C676.791 238.596 676.594 238.855 676.492 239.155L674.571 238.882C674.723 238.352 674.973 237.908 675.321 237.552C675.67 237.193 676.096 236.924 676.6 236.746C677.104 236.564 677.66 236.473 678.27 236.473C678.691 236.473 679.109 236.522 679.526 236.621C679.943 236.719 680.323 236.882 680.668 237.109C681.013 237.333 681.289 237.638 681.498 238.024C681.71 238.41 681.816 238.893 681.816 239.473V245.314H679.839V244.115H679.77C679.645 244.357 679.469 244.585 679.242 244.797C679.018 245.005 678.736 245.174 678.395 245.302C678.058 245.427 677.662 245.49 677.208 245.49ZM677.742 243.978C678.155 243.978 678.513 243.897 678.816 243.734C679.119 243.568 679.352 243.348 679.515 243.075C679.681 242.802 679.765 242.505 679.765 242.183V241.155C679.7 241.208 679.59 241.257 679.435 241.302C679.284 241.348 679.113 241.388 678.924 241.422C678.734 241.456 678.547 241.486 678.361 241.513C678.176 241.539 678.015 241.562 677.878 241.581C677.571 241.622 677.297 241.691 677.054 241.785C676.812 241.88 676.621 242.013 676.481 242.183C676.34 242.35 676.27 242.566 676.27 242.831C676.27 243.21 676.409 243.496 676.685 243.689C676.962 243.882 677.314 243.978 677.742 243.978ZM688.242 236.586V238.177H683.225V236.586H688.242ZM684.464 234.496H686.52V242.689C686.52 242.965 686.562 243.177 686.645 243.325C686.732 243.469 686.846 243.568 686.986 243.621C687.126 243.674 687.282 243.7 687.452 243.7C687.581 243.7 687.698 243.691 687.804 243.672C687.914 243.653 687.998 243.636 688.054 243.621L688.401 245.228C688.291 245.266 688.134 245.308 687.929 245.353C687.729 245.399 687.482 245.425 687.191 245.433C686.676 245.448 686.212 245.371 685.799 245.2C685.386 245.026 685.058 244.757 684.816 244.393C684.577 244.03 684.46 243.575 684.464 243.03V234.496ZM689.962 245.314V236.586H692.019V245.314H689.962ZM690.996 235.348C690.67 235.348 690.39 235.24 690.155 235.024C689.92 234.804 689.803 234.541 689.803 234.234C689.803 233.924 689.92 233.66 690.155 233.444C690.39 233.225 690.67 233.115 690.996 233.115C691.326 233.115 691.606 233.225 691.837 233.444C692.072 233.66 692.189 233.924 692.189 234.234C692.189 234.541 692.072 234.804 691.837 235.024C691.606 235.24 691.326 235.348 690.996 235.348ZM699.958 248.586V243.939H699.873C699.767 244.151 699.613 244.376 699.412 244.615C699.212 244.85 698.946 245.05 698.617 245.217C698.287 245.384 697.873 245.467 697.373 245.467C696.687 245.467 696.073 245.291 695.532 244.939C694.99 244.586 694.562 244.075 694.248 243.405C693.933 242.734 693.776 241.92 693.776 240.961C693.776 239.992 693.935 239.174 694.253 238.507C694.575 237.836 695.009 237.331 695.554 236.99C696.1 236.645 696.708 236.473 697.378 236.473C697.89 236.473 698.31 236.56 698.64 236.734C698.969 236.905 699.231 237.111 699.424 237.353C699.617 237.592 699.767 237.818 699.873 238.03H699.998V236.586H702.02V248.586H699.958ZM697.946 243.78C698.382 243.78 698.753 243.662 699.06 243.427C699.367 243.189 699.6 242.857 699.759 242.433C699.918 242.009 699.998 241.514 699.998 240.95C699.998 240.386 699.918 239.895 699.759 239.478C699.604 239.062 699.373 238.738 699.066 238.507C698.763 238.276 698.39 238.16 697.946 238.16C697.488 238.16 697.106 238.28 696.799 238.518C696.492 238.757 696.261 239.086 696.106 239.507C695.95 239.927 695.873 240.408 695.873 240.95C695.873 241.496 695.95 241.982 696.106 242.41C696.265 242.835 696.498 243.17 696.804 243.416C697.115 243.658 697.496 243.78 697.946 243.78ZM709.696 241.643V236.586H711.753V245.314H709.759V243.763H709.668C709.471 244.251 709.147 244.651 708.696 244.961C708.249 245.272 707.698 245.427 707.043 245.427C706.471 245.427 705.965 245.3 705.526 245.047C705.09 244.789 704.749 244.416 704.503 243.927C704.257 243.435 704.134 242.84 704.134 242.143V236.586H706.191V241.825C706.191 242.378 706.342 242.818 706.645 243.143C706.948 243.469 707.346 243.632 707.839 243.632C708.142 243.632 708.435 243.558 708.719 243.41C709.003 243.263 709.236 243.043 709.418 242.751C709.604 242.456 709.696 242.086 709.696 241.643ZM717.732 245.484C716.857 245.484 716.101 245.302 715.465 244.939C714.832 244.571 714.346 244.052 714.005 243.382C713.664 242.708 713.493 241.914 713.493 241.001C713.493 240.103 713.664 239.316 714.005 238.638C714.349 237.956 714.83 237.425 715.448 237.047C716.065 236.664 716.791 236.473 717.624 236.473C718.162 236.473 718.669 236.56 719.147 236.734C719.628 236.905 720.052 237.17 720.419 237.53C720.791 237.889 721.082 238.348 721.294 238.905C721.507 239.458 721.613 240.117 721.613 240.882V241.513H714.459V240.126H719.641C719.637 239.732 719.552 239.382 719.385 239.075C719.219 238.764 718.986 238.52 718.687 238.342C718.391 238.164 718.046 238.075 717.652 238.075C717.232 238.075 716.863 238.177 716.544 238.382C716.226 238.583 715.978 238.848 715.8 239.177C715.626 239.503 715.537 239.861 715.533 240.251V241.461C715.533 241.969 715.626 242.405 715.812 242.768C715.997 243.128 716.257 243.405 716.59 243.598C716.923 243.787 717.313 243.882 717.76 243.882C718.06 243.882 718.33 243.84 718.573 243.757C718.815 243.67 719.026 243.543 719.204 243.376C719.382 243.21 719.516 243.003 719.607 242.757L721.527 242.973C721.406 243.48 721.175 243.924 720.834 244.302C720.497 244.677 720.065 244.969 719.539 245.177C719.012 245.382 718.41 245.484 717.732 245.484Z" fill="white"/>
<path d="M515.87 427.955V439.591H513.762V427.955H515.87ZM521.3 439.745C520.615 439.745 520.001 439.569 519.459 439.216C518.918 438.864 518.49 438.353 518.175 437.682C517.861 437.012 517.704 436.197 517.704 435.239C517.704 434.269 517.863 433.451 518.181 432.784C518.503 432.114 518.937 431.608 519.482 431.267C520.028 430.923 520.636 430.75 521.306 430.75C521.817 430.75 522.238 430.838 522.567 431.012C522.897 431.182 523.158 431.389 523.351 431.631C523.545 431.87 523.694 432.095 523.8 432.307H523.886V427.955H525.948V439.591H523.925V438.216H523.8C523.694 438.428 523.541 438.654 523.34 438.892C523.139 439.127 522.874 439.328 522.545 439.495C522.215 439.661 521.8 439.745 521.3 439.745ZM521.874 438.057C522.31 438.057 522.681 437.94 522.988 437.705C523.295 437.466 523.528 437.135 523.687 436.711C523.846 436.286 523.925 435.792 523.925 435.228C523.925 434.663 523.846 434.173 523.687 433.756C523.531 433.339 523.3 433.016 522.994 432.784C522.69 432.553 522.317 432.438 521.874 432.438C521.416 432.438 521.033 432.557 520.726 432.796C520.42 433.034 520.189 433.364 520.033 433.784C519.878 434.205 519.8 434.686 519.8 435.228C519.8 435.773 519.878 436.26 520.033 436.688C520.192 437.112 520.425 437.447 520.732 437.694C521.043 437.936 521.423 438.057 521.874 438.057ZM532.003 439.762C531.128 439.762 530.373 439.58 529.736 439.216C529.104 438.849 528.617 438.33 528.276 437.659C527.935 436.985 527.765 436.192 527.765 435.279C527.765 434.381 527.935 433.593 528.276 432.915C528.621 432.233 529.102 431.703 529.719 431.324C530.337 430.942 531.062 430.75 531.896 430.75C532.433 430.75 532.941 430.838 533.418 431.012C533.899 431.182 534.324 431.447 534.691 431.807C535.062 432.167 535.354 432.625 535.566 433.182C535.778 433.735 535.884 434.394 535.884 435.159V435.79H528.731V434.404H533.913C533.909 434.01 533.824 433.659 533.657 433.353C533.49 433.042 533.257 432.798 532.958 432.62C532.663 432.442 532.318 432.353 531.924 432.353C531.503 432.353 531.134 432.455 530.816 432.659C530.498 432.86 530.25 433.125 530.072 433.455C529.897 433.781 529.808 434.139 529.805 434.529V435.739C529.805 436.247 529.897 436.682 530.083 437.046C530.269 437.406 530.528 437.682 530.861 437.875C531.195 438.065 531.585 438.159 532.032 438.159C532.331 438.159 532.602 438.118 532.844 438.034C533.087 437.947 533.297 437.82 533.475 437.654C533.653 437.487 533.788 437.281 533.878 437.034L535.799 437.25C535.678 437.758 535.447 438.201 535.106 438.58C534.769 438.955 534.337 439.247 533.81 439.455C533.284 439.659 532.681 439.762 532.003 439.762ZM531.049 429.716L532.322 427.12H534.333L532.589 429.716H531.049ZM540.136 439.767C539.583 439.767 539.084 439.669 538.641 439.472C538.202 439.271 537.853 438.976 537.596 438.586C537.342 438.195 537.215 437.714 537.215 437.142C537.215 436.65 537.306 436.243 537.488 435.921C537.67 435.599 537.918 435.341 538.232 435.148C538.547 434.955 538.901 434.809 539.295 434.711C539.692 434.608 540.103 434.534 540.528 434.489C541.039 434.436 541.454 434.389 541.772 434.347C542.09 434.302 542.321 434.233 542.465 434.142C542.613 434.048 542.687 433.902 542.687 433.705V433.671C542.687 433.243 542.56 432.911 542.306 432.677C542.052 432.442 541.687 432.324 541.209 432.324C540.706 432.324 540.306 432.434 540.011 432.654C539.719 432.874 539.522 433.133 539.42 433.432L537.499 433.159C537.651 432.629 537.901 432.186 538.249 431.83C538.598 431.47 539.024 431.201 539.528 431.023C540.031 430.841 540.588 430.75 541.198 430.75C541.619 430.75 542.037 430.8 542.454 430.898C542.87 430.997 543.251 431.159 543.596 431.387C543.94 431.61 544.217 431.915 544.425 432.302C544.637 432.688 544.744 433.171 544.744 433.75V439.591H542.766V438.392H542.698C542.573 438.635 542.397 438.862 542.17 439.074C541.946 439.283 541.664 439.451 541.323 439.58C540.986 439.705 540.59 439.767 540.136 439.767ZM540.67 438.256C541.083 438.256 541.44 438.175 541.744 438.012C542.047 437.845 542.28 437.625 542.442 437.353C542.609 437.08 542.692 436.783 542.692 436.461V435.432C542.628 435.485 542.518 435.534 542.363 435.58C542.211 435.625 542.041 435.665 541.851 435.699C541.662 435.733 541.475 435.764 541.289 435.79C541.103 435.817 540.942 435.839 540.806 435.858C540.499 435.9 540.225 435.968 539.982 436.063C539.74 436.158 539.548 436.29 539.408 436.461C539.268 436.627 539.198 436.843 539.198 437.108C539.198 437.487 539.336 437.773 539.613 437.966C539.889 438.159 540.242 438.256 540.67 438.256ZM551.17 430.864V432.455H546.153V430.864H551.17ZM547.391 428.773H549.448V436.966C549.448 437.243 549.49 437.455 549.573 437.603C549.66 437.747 549.774 437.845 549.914 437.898C550.054 437.951 550.209 437.978 550.38 437.978C550.509 437.978 550.626 437.968 550.732 437.949C550.842 437.93 550.925 437.913 550.982 437.898L551.329 439.506C551.219 439.544 551.062 439.586 550.857 439.631C550.656 439.677 550.41 439.703 550.119 439.711C549.603 439.726 549.139 439.648 548.726 439.478C548.314 439.303 547.986 439.034 547.744 438.671C547.505 438.307 547.387 437.853 547.391 437.307V428.773ZM552.89 439.591V430.864H554.947V439.591H552.89ZM553.924 429.625C553.598 429.625 553.318 429.517 553.083 429.302C552.848 429.082 552.731 428.819 552.731 428.512C552.731 428.201 552.848 427.938 553.083 427.722C553.318 427.502 553.598 427.392 553.924 427.392C554.253 427.392 554.534 427.502 554.765 427.722C555 427.938 555.117 428.201 555.117 428.512C555.117 428.819 555 429.082 554.765 429.302C554.534 429.517 554.253 429.625 553.924 429.625ZM560.869 439.762C560.016 439.762 559.278 439.574 558.653 439.199C558.028 438.824 557.543 438.3 557.198 437.625C556.857 436.951 556.687 436.163 556.687 435.262C556.687 434.36 556.857 433.57 557.198 432.892C557.543 432.214 558.028 431.688 558.653 431.313C559.278 430.938 560.016 430.75 560.869 430.75C561.721 430.75 562.459 430.938 563.084 431.313C563.709 431.688 564.192 432.214 564.533 432.892C564.878 433.57 565.05 434.36 565.05 435.262C565.05 436.163 564.878 436.951 564.533 437.625C564.192 438.3 563.709 438.824 563.084 439.199C562.459 439.574 561.721 439.762 560.869 439.762ZM560.88 438.114C561.342 438.114 561.728 437.987 562.039 437.733C562.35 437.476 562.581 437.131 562.732 436.699C562.887 436.267 562.965 435.786 562.965 435.256C562.965 434.722 562.887 434.239 562.732 433.807C562.581 433.372 562.35 433.025 562.039 432.767C561.728 432.51 561.342 432.381 560.88 432.381C560.406 432.381 560.012 432.51 559.698 432.767C559.387 433.025 559.155 433.372 558.999 433.807C558.848 434.239 558.772 434.722 558.772 435.256C558.772 435.786 558.848 436.267 558.999 436.699C559.155 437.131 559.387 437.476 559.698 437.733C560.012 437.987 560.406 438.114 560.88 438.114ZM568.853 434.478V439.591H566.796V430.864H568.762V432.347H568.864C569.065 431.858 569.385 431.47 569.824 431.182C570.268 430.894 570.815 430.75 571.467 430.75C572.069 430.75 572.593 430.879 573.04 431.137C573.491 431.394 573.84 431.767 574.086 432.256C574.336 432.745 574.459 433.338 574.455 434.034V439.591H572.398V434.353C572.398 433.769 572.247 433.313 571.944 432.983C571.645 432.654 571.23 432.489 570.699 432.489C570.34 432.489 570.02 432.569 569.739 432.728C569.463 432.883 569.245 433.108 569.086 433.404C568.931 433.699 568.853 434.057 568.853 434.478Z" fill="white"/>
<path d="M178.192 467.985V456.349H182.555C183.449 456.349 184.199 456.516 184.805 456.849C185.415 457.182 185.875 457.641 186.186 458.224C186.5 458.804 186.658 459.463 186.658 460.201C186.658 460.947 186.5 461.61 186.186 462.19C185.872 462.769 185.408 463.226 184.794 463.559C184.18 463.889 183.425 464.054 182.527 464.054H179.635V462.321H182.243C182.766 462.321 183.194 462.23 183.527 462.048C183.86 461.866 184.106 461.616 184.266 461.298C184.428 460.98 184.51 460.614 184.51 460.201C184.51 459.788 184.428 459.425 184.266 459.11C184.106 458.796 183.858 458.552 183.521 458.377C183.188 458.199 182.758 458.11 182.231 458.11H180.3V467.985H178.192ZM188.398 467.985V459.258H190.392V460.713H190.483C190.642 460.209 190.915 459.821 191.301 459.548C191.691 459.271 192.136 459.133 192.636 459.133C192.75 459.133 192.877 459.139 193.017 459.15C193.161 459.158 193.28 459.171 193.375 459.19V461.082C193.288 461.052 193.15 461.025 192.96 461.002C192.775 460.976 192.595 460.963 192.42 460.963C192.045 460.963 191.708 461.044 191.409 461.207C191.114 461.366 190.881 461.588 190.71 461.872C190.54 462.156 190.454 462.483 190.454 462.855V467.985H188.398ZM198.189 468.156C197.337 468.156 196.598 467.968 195.973 467.593C195.348 467.218 194.863 466.694 194.518 466.019C194.177 465.345 194.007 464.557 194.007 463.656C194.007 462.754 194.177 461.965 194.518 461.286C194.863 460.608 195.348 460.082 195.973 459.707C196.598 459.332 197.337 459.144 198.189 459.144C199.041 459.144 199.78 459.332 200.405 459.707C201.03 460.082 201.513 460.608 201.854 461.286C202.198 461.965 202.371 462.754 202.371 463.656C202.371 464.557 202.198 465.345 201.854 466.019C201.513 466.694 201.03 467.218 200.405 467.593C199.78 467.968 199.041 468.156 198.189 468.156ZM198.2 466.508C198.662 466.508 199.049 466.381 199.359 466.127C199.67 465.87 199.901 465.525 200.052 465.093C200.208 464.661 200.285 464.18 200.285 463.65C200.285 463.116 200.208 462.633 200.052 462.201C199.901 461.766 199.67 461.419 199.359 461.161C199.049 460.904 198.662 460.775 198.2 460.775C197.727 460.775 197.333 460.904 197.018 461.161C196.708 461.419 196.475 461.766 196.32 462.201C196.168 462.633 196.092 463.116 196.092 463.65C196.092 464.18 196.168 464.661 196.32 465.093C196.475 465.525 196.708 465.87 197.018 466.127C197.333 466.381 197.727 466.508 198.2 466.508ZM208.474 459.258V460.849H203.457V459.258H208.474ZM204.696 457.167H206.753V465.36C206.753 465.637 206.794 465.849 206.878 465.997C206.965 466.141 207.079 466.239 207.219 466.292C207.359 466.345 207.514 466.372 207.685 466.372C207.813 466.372 207.931 466.362 208.037 466.343C208.147 466.324 208.23 466.307 208.287 466.292L208.633 467.9C208.524 467.938 208.366 467.98 208.162 468.025C207.961 468.071 207.715 468.097 207.423 468.105C206.908 468.12 206.444 468.042 206.031 467.872C205.618 467.697 205.291 467.429 205.048 467.065C204.81 466.701 204.692 466.247 204.696 465.701V457.167ZM213.908 468.156C213.055 468.156 212.317 467.968 211.692 467.593C211.067 467.218 210.582 466.694 210.237 466.019C209.896 465.345 209.726 464.557 209.726 463.656C209.726 462.754 209.896 461.965 210.237 461.286C210.582 460.608 211.067 460.082 211.692 459.707C212.317 459.332 213.055 459.144 213.908 459.144C214.76 459.144 215.498 459.332 216.123 459.707C216.748 460.082 217.231 460.608 217.572 461.286C217.917 461.965 218.089 462.754 218.089 463.656C218.089 464.557 217.917 465.345 217.572 466.019C217.231 466.694 216.748 467.218 216.123 467.593C215.498 467.968 214.76 468.156 213.908 468.156ZM213.919 466.508C214.381 466.508 214.767 466.381 215.078 466.127C215.389 465.87 215.62 465.525 215.771 465.093C215.927 464.661 216.004 464.18 216.004 463.65C216.004 463.116 215.927 462.633 215.771 462.201C215.62 461.766 215.389 461.419 215.078 461.161C214.767 460.904 214.381 460.775 213.919 460.775C213.445 460.775 213.052 460.904 212.737 461.161C212.427 461.419 212.194 461.766 212.038 462.201C211.887 462.633 211.811 463.116 211.811 463.65C211.811 464.18 211.887 464.661 212.038 465.093C212.194 465.525 212.427 465.87 212.737 466.127C213.052 466.381 213.445 466.508 213.919 466.508ZM224.193 459.258V460.849H219.176V459.258H224.193ZM220.415 457.167H222.472V465.36C222.472 465.637 222.513 465.849 222.597 465.997C222.684 466.141 222.797 466.239 222.937 466.292C223.078 466.345 223.233 466.372 223.403 466.372C223.532 466.372 223.65 466.362 223.756 466.343C223.865 466.324 223.949 466.307 224.006 466.292L224.352 467.9C224.242 467.938 224.085 467.98 223.881 468.025C223.68 468.071 223.434 468.097 223.142 468.105C222.627 468.12 222.163 468.042 221.75 467.872C221.337 467.697 221.009 467.429 220.767 467.065C220.528 466.701 220.411 466.247 220.415 465.701V457.167ZM227.192 471.258C226.911 471.258 226.652 471.235 226.413 471.19C226.178 471.148 225.991 471.099 225.851 471.042L226.328 469.44C226.627 469.527 226.894 469.569 227.129 469.565C227.364 469.561 227.57 469.487 227.748 469.343C227.93 469.203 228.084 468.968 228.209 468.639L228.385 468.167L225.22 459.258H227.402L229.413 465.849H229.504L231.521 459.258H233.709L230.214 469.042C230.052 469.504 229.836 469.9 229.567 470.23C229.298 470.563 228.968 470.817 228.578 470.991C228.192 471.169 227.73 471.258 227.192 471.258ZM235.132 471.258V459.258H237.155V460.701H237.274C237.38 460.489 237.53 460.264 237.723 460.025C237.916 459.783 238.177 459.576 238.507 459.406C238.837 459.232 239.257 459.144 239.768 459.144C240.443 459.144 241.051 459.317 241.592 459.661C242.138 460.002 242.57 460.508 242.888 461.179C243.21 461.845 243.371 462.663 243.371 463.633C243.371 464.591 243.213 465.406 242.899 466.076C242.585 466.747 242.157 467.258 241.615 467.61C241.073 467.963 240.46 468.139 239.774 468.139C239.274 468.139 238.859 468.055 238.53 467.889C238.2 467.722 237.935 467.521 237.734 467.286C237.537 467.048 237.384 466.822 237.274 466.61H237.189V471.258H235.132ZM237.149 463.622C237.149 464.186 237.229 464.68 237.388 465.105C237.551 465.529 237.784 465.86 238.087 466.099C238.393 466.334 238.765 466.451 239.2 466.451C239.655 466.451 240.035 466.33 240.342 466.088C240.649 465.841 240.88 465.506 241.035 465.082C241.195 464.654 241.274 464.167 241.274 463.622C241.274 463.08 241.196 462.599 241.041 462.179C240.886 461.758 240.655 461.429 240.348 461.19C240.041 460.951 239.659 460.832 239.2 460.832C238.761 460.832 238.388 460.947 238.081 461.179C237.774 461.41 237.541 461.733 237.382 462.15C237.227 462.567 237.149 463.057 237.149 463.622ZM247.643 468.161C247.09 468.161 246.592 468.063 246.149 467.866C245.71 467.665 245.361 467.37 245.104 466.98C244.85 466.59 244.723 466.108 244.723 465.536C244.723 465.044 244.814 464.637 244.996 464.315C245.177 463.993 245.426 463.735 245.74 463.542C246.054 463.349 246.409 463.203 246.802 463.105C247.2 463.002 247.611 462.929 248.035 462.883C248.547 462.83 248.962 462.783 249.28 462.741C249.598 462.696 249.829 462.627 249.973 462.536C250.121 462.442 250.195 462.296 250.195 462.099V462.065C250.195 461.637 250.068 461.305 249.814 461.071C249.56 460.836 249.195 460.718 248.717 460.718C248.213 460.718 247.814 460.828 247.518 461.048C247.227 461.268 247.03 461.527 246.927 461.826L245.007 461.554C245.159 461.023 245.409 460.58 245.757 460.224C246.105 459.864 246.532 459.595 247.035 459.417C247.539 459.235 248.096 459.144 248.706 459.144C249.126 459.144 249.545 459.194 249.962 459.292C250.378 459.391 250.759 459.554 251.104 459.781C251.448 460.004 251.725 460.309 251.933 460.696C252.145 461.082 252.251 461.565 252.251 462.144V467.985H250.274V466.786H250.206C250.081 467.029 249.905 467.256 249.677 467.468C249.454 467.677 249.172 467.845 248.831 467.974C248.494 468.099 248.098 468.161 247.643 468.161ZM248.177 466.65C248.59 466.65 248.948 466.569 249.251 466.406C249.554 466.239 249.787 466.019 249.95 465.747C250.117 465.474 250.2 465.177 250.2 464.855V463.826C250.136 463.879 250.026 463.929 249.871 463.974C249.719 464.019 249.549 464.059 249.359 464.093C249.17 464.127 248.982 464.158 248.797 464.184C248.611 464.211 248.45 464.233 248.314 464.252C248.007 464.294 247.732 464.362 247.49 464.457C247.248 464.552 247.056 464.684 246.916 464.855C246.776 465.021 246.706 465.237 246.706 465.502C246.706 465.881 246.844 466.167 247.121 466.36C247.397 466.554 247.749 466.65 248.177 466.65ZM258.115 471.44C257.376 471.44 256.742 471.34 256.212 471.139C255.681 470.942 255.255 470.677 254.933 470.343C254.611 470.01 254.388 469.641 254.263 469.235L256.115 468.786C256.198 468.957 256.32 469.126 256.479 469.292C256.638 469.463 256.852 469.603 257.121 469.713C257.393 469.826 257.736 469.883 258.149 469.883C258.732 469.883 259.215 469.741 259.598 469.457C259.98 469.177 260.172 468.715 260.172 468.071V466.417H260.07C259.963 466.629 259.808 466.847 259.604 467.071C259.403 467.294 259.136 467.482 258.802 467.633C258.473 467.785 258.058 467.86 257.558 467.86C256.888 467.86 256.28 467.703 255.734 467.389C255.193 467.071 254.761 466.597 254.439 465.968C254.121 465.336 253.962 464.544 253.962 463.593C253.962 462.635 254.121 461.826 254.439 461.167C254.761 460.504 255.195 460.002 255.74 459.661C256.285 459.317 256.893 459.144 257.564 459.144C258.075 459.144 258.496 459.232 258.825 459.406C259.159 459.576 259.424 459.783 259.621 460.025C259.818 460.264 259.967 460.489 260.07 460.701H260.183V459.258H262.212V468.127C262.212 468.874 262.034 469.491 261.677 469.98C261.321 470.468 260.835 470.834 260.217 471.076C259.6 471.319 258.899 471.44 258.115 471.44ZM258.132 466.247C258.568 466.247 258.939 466.141 259.246 465.929C259.552 465.716 259.785 465.411 259.945 465.014C260.104 464.616 260.183 464.139 260.183 463.582C260.183 463.033 260.104 462.552 259.945 462.139C259.789 461.726 259.558 461.406 259.251 461.179C258.948 460.947 258.575 460.832 258.132 460.832C257.674 460.832 257.291 460.951 256.984 461.19C256.677 461.429 256.446 461.756 256.291 462.173C256.136 462.586 256.058 463.055 256.058 463.582C256.058 464.116 256.136 464.584 256.291 464.985C256.45 465.383 256.683 465.694 256.99 465.917C257.301 466.137 257.681 466.247 258.132 466.247ZM268.183 468.156C267.308 468.156 266.552 467.974 265.916 467.61C265.284 467.243 264.797 466.724 264.456 466.054C264.115 465.379 263.945 464.586 263.945 463.673C263.945 462.775 264.115 461.987 264.456 461.309C264.801 460.627 265.282 460.097 265.899 459.718C266.516 459.336 267.242 459.144 268.075 459.144C268.613 459.144 269.121 459.232 269.598 459.406C270.079 459.576 270.503 459.841 270.871 460.201C271.242 460.561 271.534 461.019 271.746 461.576C271.958 462.129 272.064 462.788 272.064 463.554V464.184H264.91V462.798H270.092C270.088 462.404 270.003 462.054 269.837 461.747C269.67 461.436 269.437 461.192 269.138 461.014C268.842 460.836 268.498 460.747 268.104 460.747C267.683 460.747 267.314 460.849 266.996 461.054C266.677 461.254 266.429 461.519 266.251 461.849C266.077 462.175 265.988 462.533 265.984 462.923V464.133C265.984 464.641 266.077 465.076 266.263 465.44C266.448 465.8 266.708 466.076 267.041 466.269C267.374 466.459 267.765 466.554 268.212 466.554C268.511 466.554 268.782 466.512 269.024 466.429C269.266 466.341 269.477 466.215 269.655 466.048C269.833 465.881 269.967 465.675 270.058 465.429L271.979 465.644C271.857 466.152 271.626 466.595 271.285 466.974C270.948 467.349 270.516 467.641 269.99 467.849C269.463 468.054 268.861 468.156 268.183 468.156Z" fill="white"/>
<path d="M90.8395 258.367V256.6H100.124V258.367H96.527V268.237H94.4361V258.367H90.8395ZM104.42 268.407C103.545 268.407 102.79 268.225 102.153 267.862C101.521 267.494 101.034 266.975 100.693 266.305C100.352 265.631 100.182 264.837 100.182 263.924C100.182 263.026 100.352 262.238 100.693 261.56C101.038 260.879 101.519 260.348 102.136 259.97C102.754 259.587 103.479 259.396 104.312 259.396C104.85 259.396 105.358 259.483 105.835 259.657C106.316 259.827 106.741 260.093 107.108 260.452C107.479 260.812 107.771 261.271 107.983 261.827C108.195 262.381 108.301 263.04 108.301 263.805V264.435H101.148V263.049H106.33C106.326 262.655 106.241 262.305 106.074 261.998C105.907 261.687 105.674 261.443 105.375 261.265C105.08 261.087 104.735 260.998 104.341 260.998C103.92 260.998 103.551 261.1 103.233 261.305C102.915 261.506 102.667 261.771 102.489 262.1C102.314 262.426 102.225 262.784 102.222 263.174V264.384C102.222 264.892 102.314 265.327 102.5 265.691C102.686 266.051 102.945 266.327 103.278 266.521C103.612 266.71 104.002 266.805 104.449 266.805C104.748 266.805 105.019 266.763 105.261 266.68C105.504 266.593 105.714 266.466 105.892 266.299C106.07 266.132 106.205 265.926 106.295 265.68L108.216 265.896C108.095 266.403 107.864 266.846 107.523 267.225C107.186 267.6 106.754 267.892 106.227 268.1C105.701 268.305 105.098 268.407 104.42 268.407ZM116.939 261.816L115.064 262.021C115.011 261.831 114.918 261.653 114.786 261.487C114.657 261.32 114.482 261.185 114.263 261.083C114.043 260.981 113.774 260.93 113.456 260.93C113.028 260.93 112.668 261.023 112.376 261.208C112.089 261.394 111.946 261.634 111.95 261.93C111.946 262.184 112.039 262.39 112.229 262.549C112.422 262.708 112.74 262.839 113.183 262.941L114.672 263.259C115.498 263.437 116.111 263.72 116.513 264.106C116.918 264.492 117.123 264.998 117.126 265.623C117.123 266.172 116.962 266.657 116.643 267.077C116.329 267.494 115.892 267.82 115.331 268.055C114.77 268.29 114.126 268.407 113.399 268.407C112.331 268.407 111.471 268.184 110.82 267.737C110.168 267.286 109.78 266.659 109.655 265.856L111.661 265.663C111.751 266.057 111.945 266.354 112.24 266.555C112.536 266.756 112.92 266.856 113.393 266.856C113.882 266.856 114.274 266.756 114.57 266.555C114.869 266.354 115.018 266.106 115.018 265.81C115.018 265.56 114.922 265.354 114.729 265.191C114.539 265.028 114.244 264.903 113.842 264.816L112.354 264.504C111.517 264.329 110.897 264.036 110.496 263.623C110.094 263.206 109.895 262.68 109.899 262.043C109.895 261.506 110.041 261.04 110.337 260.646C110.636 260.248 111.051 259.941 111.581 259.725C112.115 259.506 112.731 259.396 113.428 259.396C114.45 259.396 115.255 259.613 115.842 260.049C116.433 260.485 116.799 261.074 116.939 261.816ZM123.18 259.509V261.1H118.163V259.509H123.18ZM119.402 257.418H121.459V265.612C121.459 265.888 121.5 266.1 121.584 266.248C121.671 266.392 121.785 266.49 121.925 266.543C122.065 266.596 122.22 266.623 122.391 266.623C122.519 266.623 122.637 266.613 122.743 266.595C122.853 266.576 122.936 266.559 122.993 266.543L123.339 268.151C123.23 268.189 123.072 268.231 122.868 268.276C122.667 268.322 122.421 268.348 122.129 268.356C121.614 268.371 121.15 268.293 120.737 268.123C120.324 267.949 119.997 267.68 119.754 267.316C119.516 266.952 119.398 266.498 119.402 265.952V257.418ZM131.673 261.816L129.798 262.021C129.745 261.831 129.652 261.653 129.52 261.487C129.391 261.32 129.217 261.185 128.997 261.083C128.777 260.981 128.509 260.93 128.19 260.93C127.762 260.93 127.402 261.023 127.111 261.208C126.823 261.394 126.681 261.634 126.685 261.93C126.681 262.184 126.774 262.39 126.963 262.549C127.156 262.708 127.474 262.839 127.918 262.941L129.406 263.259C130.232 263.437 130.846 263.72 131.247 264.106C131.652 264.492 131.857 264.998 131.861 265.623C131.857 266.172 131.696 266.657 131.378 267.077C131.063 267.494 130.626 267.82 130.065 268.055C129.505 268.29 128.861 268.407 128.134 268.407C127.065 268.407 126.205 268.184 125.554 267.737C124.902 267.286 124.514 266.659 124.389 265.856L126.395 265.663C126.486 266.057 126.679 266.354 126.974 266.555C127.27 266.756 127.654 266.856 128.128 266.856C128.616 266.856 129.009 266.756 129.304 266.555C129.603 266.354 129.753 266.106 129.753 265.81C129.753 265.56 129.656 265.354 129.463 265.191C129.274 265.028 128.978 264.903 128.577 264.816L127.088 264.504C126.251 264.329 125.632 264.036 125.23 263.623C124.829 263.206 124.63 262.68 124.634 262.043C124.63 261.506 124.776 261.04 125.071 260.646C125.37 260.248 125.785 259.941 126.315 259.725C126.849 259.506 127.465 259.396 128.162 259.396C129.185 259.396 129.99 259.613 130.577 260.049C131.168 260.485 131.533 261.074 131.673 261.816Z" fill="white"/>
<path d="M108.755 45.6774V57.3137H106.647V45.6774H108.755ZM110.946 57.3137V48.5864H112.912V50.0694H113.015C113.196 49.5694 113.498 49.1793 113.918 48.8989C114.339 48.6149 114.84 48.4728 115.424 48.4728C116.015 48.4728 116.513 48.6168 116.918 48.9046C117.327 49.1887 117.615 49.577 117.782 50.0694H117.873C118.066 49.5846 118.392 49.1982 118.85 48.9103C119.312 48.6186 119.859 48.4728 120.492 48.4728C121.295 48.4728 121.95 48.7266 122.458 49.2342C122.965 49.7418 123.219 50.4823 123.219 51.4558V57.3137H121.157V51.7739C121.157 51.2323 121.013 50.8364 120.725 50.5864C120.437 50.3327 120.085 50.2058 119.668 50.2058C119.172 50.2058 118.784 50.3611 118.503 50.6717C118.227 50.9785 118.089 51.3781 118.089 51.8705V57.3137H116.071V51.6887C116.071 51.238 115.935 50.8781 115.662 50.6092C115.393 50.3402 115.041 50.2058 114.606 50.2058C114.31 50.2058 114.041 50.2815 113.799 50.433C113.556 50.5808 113.363 50.791 113.219 51.0637C113.075 51.3327 113.003 51.6471 113.003 52.0069V57.3137H110.946ZM125.306 60.5864V48.5864H127.329V50.0296H127.448C127.554 49.8175 127.704 49.5921 127.897 49.3535C128.09 49.1111 128.351 48.9046 128.681 48.7342C129.01 48.5599 129.431 48.4728 129.942 48.4728C130.616 48.4728 131.224 48.6452 131.766 48.9899C132.312 49.3308 132.743 49.8364 133.062 50.5069C133.383 51.1736 133.544 51.9918 133.544 52.9614C133.544 53.9198 133.387 54.7342 133.073 55.4046C132.758 56.0751 132.33 56.5864 131.789 56.9387C131.247 57.291 130.633 57.4671 129.948 57.4671C129.448 57.4671 129.033 57.3838 128.704 57.2171C128.374 57.0505 128.109 56.8497 127.908 56.6149C127.711 56.3762 127.558 56.1508 127.448 55.9387H127.363V60.5864H125.306ZM127.323 52.9501C127.323 53.5145 127.402 54.0088 127.562 54.433C127.724 54.8573 127.957 55.1887 128.26 55.4274C128.567 55.6622 128.938 55.7796 129.374 55.7796C129.829 55.7796 130.209 55.6584 130.516 55.416C130.823 55.1698 131.054 54.8346 131.209 54.4103C131.368 53.9823 131.448 53.4955 131.448 52.9501C131.448 52.4084 131.37 51.9274 131.215 51.5069C131.06 51.0864 130.829 50.7569 130.522 50.5183C130.215 50.2796 129.832 50.1603 129.374 50.1603C128.935 50.1603 128.562 50.2758 128.255 50.5069C127.948 50.738 127.715 51.0618 127.556 51.4785C127.401 51.8952 127.323 52.3857 127.323 52.9501ZM137.363 45.6774V57.3137H135.306V45.6774H137.363ZM143.341 57.4842C142.466 57.4842 141.711 57.3024 141.074 56.9387C140.442 56.5713 139.955 56.0524 139.614 55.3819C139.273 54.7077 139.103 53.9141 139.103 53.0012C139.103 52.1035 139.273 51.3156 139.614 50.6376C139.959 49.9558 140.44 49.4255 141.057 49.0467C141.675 48.6641 142.4 48.4728 143.233 48.4728C143.771 48.4728 144.279 48.5599 144.756 48.7342C145.237 48.9046 145.661 49.1698 146.029 49.5296C146.4 49.8895 146.692 50.3478 146.904 50.9046C147.116 51.4577 147.222 52.1168 147.222 52.8819V53.5126H140.069V52.1262H145.25C145.247 51.7323 145.161 51.3819 144.995 51.0751C144.828 50.7645 144.595 50.5202 144.296 50.3421C144 50.1641 143.656 50.0751 143.262 50.0751C142.841 50.0751 142.472 50.1774 142.154 50.3819C141.836 50.5827 141.588 50.8478 141.41 51.1774C141.235 51.5031 141.146 51.8611 141.142 52.2512V53.4614C141.142 53.969 141.235 54.4046 141.421 54.7683C141.607 55.1281 141.866 55.4046 142.199 55.5978C142.533 55.7872 142.923 55.8819 143.37 55.8819C143.669 55.8819 143.94 55.8402 144.182 55.7569C144.425 55.6698 144.635 55.5429 144.813 55.3762C144.991 55.2096 145.125 55.0031 145.216 54.7569L147.137 54.9728C147.016 55.4804 146.785 55.9236 146.444 56.3024C146.107 56.6774 145.675 56.969 145.148 57.1774C144.622 57.3819 144.019 57.4842 143.341 57.4842ZM142.387 47.4387L143.66 44.8421H145.671L143.927 47.4387H142.387ZM148.962 57.3137V48.5864H150.928V50.0694H151.03C151.212 49.5694 151.513 49.1793 151.934 48.8989C152.354 48.6149 152.856 48.4728 153.439 48.4728C154.03 48.4728 154.528 48.6168 154.934 48.9046C155.343 49.1887 155.631 49.577 155.797 50.0694H155.888C156.081 49.5846 156.407 49.1982 156.866 48.9103C157.328 48.6186 157.875 48.4728 158.508 48.4728C159.311 48.4728 159.966 48.7266 160.473 49.2342C160.981 49.7418 161.235 50.4823 161.235 51.4558V57.3137H159.172V51.7739C159.172 51.2323 159.028 50.8364 158.741 50.5864C158.453 50.3327 158.1 50.2058 157.684 50.2058C157.187 50.2058 156.799 50.3611 156.519 50.6717C156.242 50.9785 156.104 51.3781 156.104 51.8705V57.3137H154.087V51.6887C154.087 51.238 153.951 50.8781 153.678 50.6092C153.409 50.3402 153.057 50.2058 152.621 50.2058C152.326 50.2058 152.057 50.2815 151.814 50.433C151.572 50.5808 151.379 50.791 151.235 51.0637C151.091 51.3327 151.019 51.6471 151.019 52.0069V57.3137H148.962ZM167.185 57.4842C166.31 57.4842 165.554 57.3024 164.918 56.9387C164.285 56.5713 163.799 56.0524 163.458 55.3819C163.117 54.7077 162.946 53.9141 162.946 53.0012C162.946 52.1035 163.117 51.3156 163.458 50.6376C163.803 49.9558 164.284 49.4255 164.901 49.0467C165.518 48.6641 166.244 48.4728 167.077 48.4728C167.615 48.4728 168.123 48.5599 168.6 48.7342C169.081 48.9046 169.505 49.1698 169.873 49.5296C170.244 49.8895 170.535 50.3478 170.748 50.9046C170.96 51.4577 171.066 52.1168 171.066 52.8819V53.5126H163.912V52.1262H169.094C169.09 51.7323 169.005 51.3819 168.839 51.0751C168.672 50.7645 168.439 50.5202 168.14 50.3421C167.844 50.1641 167.499 50.0751 167.106 50.0751C166.685 50.0751 166.316 50.1774 165.998 50.3819C165.679 50.5827 165.431 50.8478 165.253 51.1774C165.079 51.5031 164.99 51.8611 164.986 52.2512V53.4614C164.986 53.969 165.079 54.4046 165.265 54.7683C165.45 55.1281 165.71 55.4046 166.043 55.5978C166.376 55.7872 166.767 55.8819 167.214 55.8819C167.513 55.8819 167.784 55.8402 168.026 55.7569C168.268 55.6698 168.479 55.5429 168.657 55.3762C168.835 55.2096 168.969 55.0031 169.06 54.7569L170.981 54.9728C170.859 55.4804 170.628 55.9236 170.287 56.3024C169.95 56.6774 169.518 56.969 168.992 57.1774C168.465 57.3819 167.863 57.4842 167.185 57.4842ZM174.863 52.2001V57.3137H172.806V48.5864H174.772V50.0694H174.874C175.075 49.5808 175.395 49.1925 175.834 48.9046C176.277 48.6168 176.825 48.4728 177.476 48.4728C178.079 48.4728 178.603 48.6016 179.05 48.8592C179.501 49.1168 179.849 49.4899 180.096 49.9785C180.346 50.4671 180.469 51.0599 180.465 51.7569V57.3137H178.408V52.0751C178.408 51.4918 178.257 51.0353 177.954 50.7058C177.654 50.3762 177.24 50.2114 176.709 50.2114C176.349 50.2114 176.029 50.291 175.749 50.4501C175.473 50.6054 175.255 50.8308 175.096 51.1262C174.94 51.4217 174.863 51.7796 174.863 52.2001ZM186.914 48.5864V50.1774H181.897V48.5864H186.914ZM183.135 46.4955H185.192V54.6887C185.192 54.9652 185.234 55.1774 185.317 55.3251C185.404 55.469 185.518 55.5675 185.658 55.6205C185.798 55.6736 185.954 55.7001 186.124 55.7001C186.253 55.7001 186.37 55.6906 186.476 55.6717C186.586 55.6527 186.669 55.6357 186.726 55.6205L187.073 57.2285C186.963 57.2664 186.806 57.308 186.601 57.3535C186.401 57.3989 186.154 57.4255 185.863 57.433C185.348 57.4482 184.883 57.3705 184.471 57.2001C184.058 57.0258 183.73 56.7569 183.488 56.3933C183.249 56.0296 183.132 55.5751 183.135 55.0296V46.4955ZM191.145 57.4899C190.592 57.4899 190.094 57.3914 189.651 57.1944C189.212 56.9936 188.863 56.6982 188.606 56.308C188.352 55.9179 188.225 55.4368 188.225 54.8649C188.225 54.3724 188.316 53.9652 188.498 53.6433C188.679 53.3213 188.928 53.0637 189.242 52.8705C189.556 52.6774 189.91 52.5315 190.304 52.433C190.702 52.3308 191.113 52.2569 191.537 52.2114C192.049 52.1584 192.464 52.1111 192.782 52.0694C193.1 52.0239 193.331 51.9558 193.475 51.8649C193.623 51.7702 193.696 51.6243 193.696 51.4274V51.3933C193.696 50.9652 193.57 50.6338 193.316 50.3989C193.062 50.1641 192.696 50.0467 192.219 50.0467C191.715 50.0467 191.316 50.1565 191.02 50.3762C190.729 50.5959 190.532 50.8554 190.429 51.1546L188.509 50.8819C188.66 50.3516 188.91 49.9084 189.259 49.5524C189.607 49.1925 190.034 48.9236 190.537 48.7455C191.041 48.5637 191.598 48.4728 192.208 48.4728C192.628 48.4728 193.047 48.5221 193.464 48.6205C193.88 48.719 194.261 48.8819 194.606 49.1092C194.95 49.3327 195.227 49.6376 195.435 50.0239C195.647 50.4103 195.753 50.8933 195.753 51.4728V57.3137H193.776V56.1149H193.708C193.583 56.3573 193.407 56.5846 193.179 56.7967C192.956 57.005 192.674 57.1736 192.333 57.3024C191.996 57.4274 191.6 57.4899 191.145 57.4899ZM191.679 55.9785C192.092 55.9785 192.45 55.8971 192.753 55.7342C193.056 55.5675 193.289 55.3478 193.452 55.0751C193.619 54.8024 193.702 54.505 193.702 54.183V53.1546C193.638 53.2077 193.528 53.2569 193.373 53.3024C193.221 53.3478 193.051 53.3876 192.861 53.4217C192.672 53.4558 192.484 53.4861 192.299 53.5126C192.113 53.5391 191.952 53.5618 191.816 53.5808C191.509 53.6224 191.234 53.6906 190.992 53.7853C190.749 53.88 190.558 54.0126 190.418 54.183C190.278 54.3497 190.208 54.5656 190.208 54.8308C190.208 55.2096 190.346 55.4955 190.623 55.6887C190.899 55.8819 191.251 55.9785 191.679 55.9785ZM202.179 48.5864V50.1774H197.162V48.5864H202.179ZM198.401 46.4955H200.458V54.6887C200.458 54.9652 200.499 55.1774 200.583 55.3251C200.67 55.469 200.784 55.5675 200.924 55.6205C201.064 55.6736 201.219 55.7001 201.39 55.7001C201.518 55.7001 201.636 55.6906 201.742 55.6717C201.852 55.6527 201.935 55.6357 201.992 55.6205L202.339 57.2285C202.229 57.2664 202.071 57.308 201.867 57.3535C201.666 57.3989 201.42 57.4255 201.128 57.433C200.613 57.4482 200.149 57.3705 199.736 57.2001C199.323 57.0258 198.996 56.7569 198.753 56.3933C198.515 56.0296 198.397 55.5751 198.401 55.0296V46.4955ZM203.9 57.3137V48.5864H205.956V57.3137H203.9ZM204.934 47.3478C204.608 47.3478 204.328 47.2399 204.093 47.0239C203.858 46.8043 203.741 46.541 203.741 46.2342C203.741 45.9236 203.858 45.6603 204.093 45.4444C204.328 45.2247 204.608 45.1149 204.934 45.1149C205.263 45.1149 205.544 45.2247 205.775 45.4444C206.009 45.6603 206.127 45.9236 206.127 46.2342C206.127 46.541 206.009 46.8043 205.775 47.0239C205.544 47.2399 205.263 47.3478 204.934 47.3478ZM211.878 57.4842C211.026 57.4842 210.287 57.2967 209.662 56.9217C209.037 56.5467 208.553 56.0221 208.208 55.3478C207.867 54.6736 207.696 53.8857 207.696 52.9842C207.696 52.0827 207.867 51.2929 208.208 50.6149C208.553 49.9368 209.037 49.4103 209.662 49.0353C210.287 48.6603 211.026 48.4728 211.878 48.4728C212.731 48.4728 213.469 48.6603 214.094 49.0353C214.719 49.4103 215.202 49.9368 215.543 50.6149C215.888 51.2929 216.06 52.0827 216.06 52.9842C216.06 53.8857 215.888 54.6736 215.543 55.3478C215.202 56.0221 214.719 56.5467 214.094 56.9217C213.469 57.2967 212.731 57.4842 211.878 57.4842ZM211.89 55.8364C212.352 55.8364 212.738 55.7096 213.049 55.4558C213.359 55.1982 213.59 54.8535 213.742 54.4217C213.897 53.9899 213.975 53.5088 213.975 52.9785C213.975 52.4444 213.897 51.9614 213.742 51.5296C213.59 51.094 213.359 50.7474 213.049 50.4899C212.738 50.2323 212.352 50.1035 211.89 50.1035C211.416 50.1035 211.022 50.2323 210.708 50.4899C210.397 50.7474 210.164 51.094 210.009 51.5296C209.857 51.9614 209.782 52.4444 209.782 52.9785C209.782 53.5088 209.857 53.9899 210.009 54.4217C210.164 54.8535 210.397 55.1982 210.708 55.4558C211.022 55.7096 211.416 55.8364 211.89 55.8364ZM219.863 52.2001V57.3137H217.806V48.5864H219.772V50.0694H219.874C220.075 49.5808 220.395 49.1925 220.834 48.9046C221.277 48.6168 221.825 48.4728 222.476 48.4728C223.079 48.4728 223.603 48.6016 224.05 48.8592C224.501 49.1168 224.849 49.4899 225.096 49.9785C225.346 50.4671 225.469 51.0599 225.465 51.7569V57.3137H223.408V52.0751C223.408 51.4918 223.257 51.0353 222.954 50.7058C222.654 50.3762 222.24 50.2114 221.709 50.2114C221.349 50.2114 221.029 50.291 220.749 50.4501C220.473 50.6054 220.255 50.8308 220.096 51.1262C219.94 51.4217 219.863 51.7796 219.863 52.2001Z" fill="white"/>
<g clip-path="url(#clip0_487_3)">
<path d="M344.819 182.506C345.34 182.506 345.343 181.687 344.819 181.687C344.295 181.687 344.295 182.506 344.819 182.506Z" fill="#00DFCD"/>
<path d="M470.922 238.685C470.922 219.521 458.548 203.522 442.06 199.708C430.116 169.282 402.471 147.971 370.273 147.971C338.074 147.971 310.569 169.174 298.577 199.477C281.562 202.835 268.652 219.111 268.652 238.685C268.652 260.284 284.371 277.869 303.983 278.508C317.777 302.672 342.306 318.75 370.273 318.75C398.24 318.75 422.801 302.648 436.589 278.46C455.733 277.268 470.922 259.918 470.922 238.685Z" fill="#F6F6E7"/>
<path d="M352.427 224.573C352.427 232.429 343.445 238.801 332.366 238.801C321.287 238.801 312.306 232.432 312.306 224.573C312.306 216.714 321.287 210.345 332.366 210.345C343.445 210.345 352.427 216.714 352.427 224.573Z" fill="white"/>
<path d="M332.367 239.053C321.167 239.053 312.054 232.558 312.054 224.573C312.054 216.588 321.167 210.092 332.367 210.092C343.567 210.092 352.68 216.588 352.68 224.573C352.68 232.558 343.567 239.053 332.367 239.053ZM332.367 210.6C321.444 210.6 312.559 216.869 312.559 224.575C312.559 232.281 321.444 238.551 332.367 238.551C343.29 238.551 352.175 232.281 352.175 224.575C352.175 216.869 343.29 210.6 332.367 210.6Z" fill="#00DFCD"/>
<path d="M425.93 224.573C425.93 232.429 416.948 238.801 405.869 238.801C394.79 238.801 385.809 232.432 385.809 224.573C385.809 216.714 394.79 210.345 405.869 210.345C416.948 210.345 425.93 216.714 425.93 224.573Z" fill="white"/>
<path d="M405.869 239.053C394.669 239.053 385.556 232.558 385.556 224.573C385.556 216.588 394.669 210.092 405.869 210.092C417.069 210.092 426.182 216.588 426.182 224.573C426.182 232.558 417.069 239.053 405.869 239.053ZM405.869 210.6C394.946 210.6 386.061 216.869 386.061 224.575C386.061 232.281 394.946 238.551 405.869 238.551C416.792 238.551 425.677 232.281 425.677 224.575C425.677 216.869 416.792 210.6 405.869 210.6Z" fill="#00DFCD"/>
<path d="M343.249 219.959C343.249 224.798 339.354 228.722 334.552 228.722C329.751 228.722 325.855 224.798 325.855 219.959C325.855 215.12 329.748 211.196 334.552 211.196C339.356 211.196 343.249 215.117 343.249 219.959Z" fill="#00DFCD"/>
<path d="M416.319 219.959C416.319 224.798 412.426 228.722 407.622 228.722C402.818 228.722 398.925 224.798 398.925 219.959C398.925 215.12 402.818 211.196 407.622 211.196C412.426 211.196 416.319 215.117 416.319 219.959Z" fill="#00DFCD"/>
</g>
<defs>
<clipPath id="clip0_487_3">
<rect width="202.27" height="170.779" fill="white" transform="translate(268.652 147.971)"/>
</clipPath>
</defs>
</svg>
