<svg width="320" height="254" viewBox="0 0 320 254" fill="none" xmlns="http://www.w3.org/2000/svg">
<g clip-path="url(#clip0_265_356)">
<path d="M191.635 7.95374C193.837 7.95374 195.621 6.17324 195.621 3.97687C195.621 1.78051 193.837 0 191.635 0C189.434 0 187.649 1.78051 187.649 3.97687C187.649 6.17324 189.434 7.95374 191.635 7.95374Z" fill="#7DDCCB"/>
<path d="M62.9408 250.594L62.806 250.162L3.41406 61.8944L3.8466 61.7598L192.538 2.50122L192.673 2.93278L252.065 191.201L251.632 191.335L62.9408 250.594ZM4.55353 62.4884L63.5361 249.457L250.925 190.607L191.943 3.63813L4.55353 62.4884Z" fill="#7DDCCB"/>
<path fill-rule="evenodd" clip-rule="evenodd" d="M318.293 203.605C318.173 204.658 317.224 205.405 316.173 205.289L316.056 205.271L286.593 201.962L293.128 225.498C293.407 226.519 292.811 227.568 291.788 227.851C291.183 228.018 290.56 227.874 290.104 227.517L230.945 187.883C230.066 187.293 229.834 186.11 230.424 185.233C230.652 184.894 230.968 184.658 231.322 184.518L297.955 158.959C298.941 158.578 300.048 159.07 300.429 160.054C300.643 160.62 300.578 161.228 300.29 161.711L288.705 183.14L318.289 186.467C319.345 186.588 320.093 187.535 319.977 188.584L318.28 203.609V203.6L318.293 203.605Z" fill="#7DDCCB"/>
<path d="M3.98581 67.1567C6.18712 67.1567 7.97163 65.3762 7.97163 63.1798C7.97163 60.9835 6.18712 59.203 3.98581 59.203C1.78451 59.203 0 60.9835 0 63.1798C0 65.3762 1.78451 67.1567 3.98581 67.1567Z" fill="#7DDCCB"/>
<path d="M64.0796 254.005C66.2809 254.005 68.0654 252.224 68.0654 250.028C68.0654 247.831 66.2809 246.051 64.0796 246.051C61.8783 246.051 60.0938 247.831 60.0938 250.028C60.0938 252.224 61.8783 254.005 64.0796 254.005Z" fill="#7DDCCB"/>
</g>
<defs>
<clipPath id="clip0_265_356">
<rect width="320" height="254" fill="white"/>
</clipPath>
</defs>
</svg>
