<svg width="149" height="87" viewBox="0 0 149 87" fill="none" xmlns="http://www.w3.org/2000/svg">
<g clip-path="url(#clip0_265_1555)">
<path d="M114.372 0.276245H34.6287C15.7357 0.276245 0.277344 15.6948 0.277344 34.5392C0.277344 53.3835 15.7357 68.8021 34.6287 68.8021H97.0689C98.1962 73.0622 102.7 86.7237 114.04 86.7237L114.35 68.8021H114.372C133.265 68.8021 148.723 53.3835 148.723 34.5392C148.723 15.6948 133.265 0.276245 114.372 0.276245Z" fill="white"/>
<path d="M114.311 87H114.039C102.677 87 98.0712 73.554 96.858 69.0784H34.6284C15.5332 69.0784 0 53.5852 0 34.5392C0 15.4932 15.5332 0 34.6284 0H114.372C133.467 0 149 15.4932 149 34.5392C149 53.5852 133.603 68.943 114.624 69.0784L114.313 87.0028L114.311 87ZM34.6284 0.552539C15.8406 0.552539 0.553965 15.7998 0.553965 34.5392C0.553965 53.2786 15.8406 68.5259 34.6284 68.5259H97.2846L97.34 68.7331C98.4313 72.855 102.824 86.2292 113.771 86.4475L114.081 68.5286H114.352C133.162 68.5286 148.449 53.2813 148.449 34.542C148.449 15.8026 133.159 0.552539 114.372 0.552539H34.6284Z" fill="#00DFCD"/>
<path d="M51.8428 35.1885C51.8428 32.1412 53.9091 30.0001 56.7952 30.0001C59.6814 30.0001 61.6729 32.1412 61.6729 35.1885C61.6729 38.2357 59.7756 40.3823 56.7149 40.3823C53.8232 40.3823 51.8428 38.1611 51.8428 35.1885Z" fill="#00DFCD"/>
<path d="M68.9492 35.1885C68.9492 32.1412 71.0155 30.0001 73.9072 30.0001C76.7989 30.0001 78.7793 32.1412 78.7793 35.1885C78.7793 38.2357 76.882 40.3823 73.8213 40.3823C70.9296 40.3823 68.9492 38.1611 68.9492 35.1885Z" fill="#00DFCD"/>
<path d="M86.0586 35.1885C86.0586 32.1412 88.1249 30.0001 91.011 30.0001C93.8972 30.0001 95.8887 32.1412 95.8887 35.1885C95.8887 38.2357 93.9914 40.3823 90.9307 40.3823C88.039 40.3823 86.0586 38.1611 86.0586 35.1885Z" fill="#00DFCD"/>
</g>
<defs>
<clipPath id="clip0_265_1555">
<rect width="149" height="87" fill="white"/>
</clipPath>
</defs>
</svg>
