<svg width="59" height="92" viewBox="0 0 59 92" fill="none" xmlns="http://www.w3.org/2000/svg">
<path d="M6.86816 71.1827C9.33375 70.0849 11.9246 70.0698 14.5771 71.088C17.2215 72.103 19.1059 73.83 20.1299 76.2725L20.3232 76.7364C21.2257 79.0624 21.1792 81.4957 20.2246 83.9825C19.2322 86.5677 17.4863 88.4695 15.0166 89.6387L15.0156 89.6378C12.6145 90.7772 10.0521 90.804 7.40039 89.7862C4.74787 88.768 2.8322 87.0232 1.73438 84.5577L1.72461 84.5362L1.71582 84.5137C0.745306 82.0212 0.765778 79.4634 1.75293 76.8917C2.76585 74.2529 4.46147 72.3245 6.8457 71.1924L6.85645 71.1876L6.86816 71.1827ZM22.207 1.49323C27.7437 0.462803 33.3665 1.05359 39.0557 3.23737C43.9577 5.11899 47.945 7.76514 50.9795 11.1964H50.9785C54.0798 14.6462 56.0285 18.5702 56.8008 22.9551L56.8721 23.3614C57.5729 27.5585 57.0603 31.8698 55.3691 36.2755C53.7427 40.5126 51.3402 43.9532 48.1484 46.5616L48.1475 46.5606C45.0494 49.1835 41.3804 50.9426 37.1621 51.8448C34.8639 52.3363 32.4635 52.5536 29.9629 52.5069L24.6885 63.8477L24.2949 64.6944L23.4229 64.3594L12.6191 60.213L11.6855 59.8546L12.0439 58.921L20.4688 36.9708L20.8271 36.0372L21.7607 36.3956L24.832 37.5743C27.2155 38.4891 29.3885 38.8278 31.3672 38.6378L31.7578 38.588C33.6942 38.3085 35.335 37.6155 36.708 36.5264L36.7178 36.5186L37.0078 36.2862C38.4357 35.0988 39.5376 33.5259 40.3018 31.5352C41.1218 29.3986 41.3507 27.4203 41.04 25.5792C40.7283 23.7324 39.9118 22.0792 38.5645 20.6055C37.2201 19.1351 35.3751 17.9281 32.9854 17.0108C29.9113 15.8309 26.8541 15.6375 23.7852 16.4151L23.7793 16.4161C20.8273 17.1453 17.9701 18.8738 15.2129 21.6797L14.2822 22.627L13.6289 21.4708L7.41211 10.4727L7.0332 9.80182L7.58496 9.26373C11.88 5.08328 16.7577 2.47908 22.207 1.49225V1.49323Z" stroke="#00CC73" stroke-width="2"/>
</svg>
