<?xml version="1.0" encoding="UTF-8"?>
<svg id="Layer_0_Image" data-name="Layer 0 Image" xmlns="http://www.w3.org/2000/svg" viewBox="0 0 400 400">
  <defs>
    <style>
      .cls-1 {
        fill: #00cc73;
      }

      .cls-2 {
        fill: #faf9ec;
      }

      .cls-3 {
        fill: #00dfcd;
      }
    </style>
  </defs>
  <path class="cls-2" d="M93.55,148.34c-2.25-.81-5.24-1.67-8.83-2.11-4.71-.58-8.18-1.01-11.73.82-2.98,1.54-4.72,3.99-5.97,5.77-1.61,2.27-2.39,4.29-3.12,6.2-.77,2-1.62,4.76-2.11,8.17-.68,4.13-.37,7.44,0,9.56.62,3.61,1.81,6.19,3.43,9.69,1.11,2.4,2.21,4.78,4.22,7.65,1.42,2.02,3.99,5.27,8.04,8.44,2.62,2.05,5.62,4.34,10.15,5.54,2.3.61,6.66,1.75,8.83-.53.81-.85,1.09-1.93,1.19-2.77"/>
  <g>
    <path class="cls-1" d="M162.59,372.04c-14.31,3.55-27.96,2.93-42.17.99-12.97-1.77-23.86-6.87-32.71-16.72-4.21-4.68-10.03-9.49-12.59-15.49-6.42-15.07-10.44-36.97-10.44-53v-87.62c1.65-5.46.21-10.12-1.85-15.04-5.33-12.77-3.61-27.2,5.96-36.84,6.28-24.11,13.31-46.85,23.21-69.37,17.3-39.35,54.3-57.2,95.43-61.75,22.91-2.54,49.54,6.74,65.07,23.49,23.6,13.82,47.52,48.6,53.19,75.06l19.15,89.33c5.76,26.87,25.09,59.23,26.3,89.45.51,12.81-.72,26.57-8.2,37.25-7.99,11.42-21.63,17.36-35.68,18.25-49.28,3.12-96.94,10.16-144.68,22ZM96.44,209.56c-12.9,1.33-18.98-4.99-28.44-12.5l-.94,62.28c-.36,23.57.97,58.53,10.73,79.49,3.06,6.57,9.49,11.87,14.25,17.11,7.35,8.09,16.69,12.31,27.44,13.84,14.13,2.02,27.73,2.92,41.93-.58,48.12-11.85,96.27-19.11,145.77-22.14,12.34-.76,29.38-8.18,35.3-20.3,12.43-25.44,3.02-54.31-6.37-78.83-4.92-12.85-9.35-25.46-13.29-38.69-8.04-27.01-13.02-68.61-21.14-96.58-7.58-26.1-23.96-49.1-45.26-65.72l-12.52-9.77c-28.8-22.46-58.23-20.28-91.56-8.85-25.64,8.79-46.15,26.62-57.39,51.6-9.39,20.85-16.01,42.32-22.12,65.05,8.57-1,13.93-.9,21.16,1.32,7.02-38.12,22.98-69.17,55.78-89.95,5.28-3.35,10.83-4.42,16.73-1.23,10.78,5.84,19.06,14.04,26.75,23.67,12.48,15.62,24.99,30.31,39.87,43.75,8.54,7.71,18.87,13.83,29.83,17.34,8.49,2.72,17.17,1.77,26.42,1.55,4.57-.11,27.49,18.41,14.3,43.1-6.45,12.07-17.51,19.85-30.47,25-6.83,23.1-17.67,43.87-35.13,59.9-30.88,28.33-72.22,30.76-104.59,3.22-19.15-16.29-30.1-38.33-37.04-63.08ZM292.04,147.16c-8.98-5.18-25.37,2.76-48.57-13.08-8.72-5.96-17.14-11.98-24.1-20.09l-36.15-42.07c-4.98-5.79-11.81-10.7-18.66-14.06-5.2-2.55-11.77.18-16.22,3.12-67.76,44.9-71.65,165.04-7.33,213.57,26.26,19.81,60.57,18.92,86.92-.82,21.85-16.36,35.31-40.2,42.81-66.65,12.84-4.8,24.06-12.3,30.38-24.49,6.47-12.46,4.05-27.85-9.1-35.43ZM95.62,205.77c-3.86-19.45-4.34-36.53-2.37-54.93-4.66-4.22-12.05-4.8-17.94-2.33-4.5,1.89-9.41,6.8-11.1,12.9-4.61,16.58,3.52,34.24,18.38,42.74,3.75,2.15,8.53,2.96,13.03,1.61Z"/>
    <path class="cls-3" d="M96.44,209.56c6.94,24.75,17.89,46.79,37.04,63.08,32.37,27.54,73.71,25.11,104.59-3.22,17.46-16.02,28.3-36.79,35.13-59.9,12.96-5.14,24.02-12.92,30.47-25,13.19-24.68-9.73-43.21-14.3-43.1-9.25.22-17.93,1.17-26.42-1.55-10.96-3.52-21.28-9.63-29.83-17.34-14.88-13.44-27.39-28.13-39.87-43.75-7.69-9.63-15.98-17.83-26.75-23.67-5.9-3.2-11.44-2.12-16.73,1.23-32.81,20.77-48.77,51.83-55.78,89.95-7.23-2.23-12.59-2.33-21.16-1.32,6.11-22.73,12.73-44.19,22.12-65.05,11.24-24.98,31.76-42.81,57.39-51.6,33.32-11.42,62.76-13.61,91.56,8.85l12.52,9.77c21.3,16.61,37.68,39.62,45.26,65.72,8.12,27.97,13.1,69.57,21.14,96.58,3.94,13.24,8.37,25.84,13.29,38.69,9.39,24.52,18.8,53.39,6.37,78.83-5.92,12.12-22.96,19.54-35.3,20.3-49.51,3.03-97.65,10.29-145.77,22.14-14.2,3.5-27.8,2.6-41.93.58-10.75-1.54-20.09-5.76-27.44-13.84-4.76-5.24-11.19-10.54-14.25-17.11-9.76-20.97-11.09-55.92-10.73-79.49l.94-62.28c9.45,7.51,15.54,13.84,28.44,12.5Z"/>
    <path class="cls-2" d="M292.04,147.16c13.15,7.58,15.57,22.96,9.1,35.43-6.32,12.19-17.54,19.7-30.38,24.49-7.5,26.45-20.96,50.29-42.81,66.65-26.36,19.73-60.66,20.63-86.92.82-64.32-48.53-60.43-168.67,7.33-213.57,4.44-2.95,11.02-5.67,16.22-3.12,6.85,3.36,13.69,8.27,18.66,14.06l36.15,42.07c6.96,8.11,15.38,14.14,24.1,20.09,23.19,15.84,39.58,7.9,48.57,13.08ZM208.08,167.19c2.86.63,5-2.83,4.99-4.95,0-1.57-2.55-4.3-4.55-3.92-1.27.24-3.09,2.95-3.35,4.21-.26,1.25,1.44,4.35,2.91,4.67ZM141.3,167.12c3.96,2.05,6.18-.71,6.16-3.51-.01-2.04-2.73-4.77-5.36-3.82-2.04.74-2.55,6.43-.81,7.33ZM176.25,209.84c-5.3-1.55-9.07-2.22-11.2-5.96-6.21-10.87,17.17-14.44,10.88-30.18-2.82,6.86-4.16,12.88-9.23,16.61-5.48,4.04-7.47,9.4-4.07,15.21,2.48,4.23,7.86,8.91,13.63,4.31ZM200.83,229.72c-10.05,3.34-17.59,11.85-28.58,11.23l-2.84-.16c-.55-.03-.64,1.35-.69,1.91-.51,5.61,30.66-4.65,32.12-12.98Z"/>
    <path class="cls-1" d="M176.25,209.84c-5.77,4.59-11.15-.08-13.63-4.31-3.4-5.81-1.41-11.18,4.07-15.21,5.08-3.74,6.41-9.76,9.23-16.61,6.3,15.74-17.09,19.31-10.88,30.18,2.13,3.74,5.9,4.41,11.2,5.96Z"/>
    <path class="cls-1" d="M200.83,229.72c-1.46,8.33-32.63,18.59-32.12,12.98.05-.56.14-1.94.69-1.91l2.84.16c10.99.62,18.54-7.89,28.58-11.23Z"/>
    <path class="cls-1" d="M208.08,167.19c-1.47-.32-3.17-3.42-2.91-4.67.26-1.25,2.08-3.96,3.35-4.21,2-.38,4.54,2.35,4.55,3.92,0,2.12-2.13,5.58-4.99,4.95Z"/>
    <path class="cls-1" d="M141.3,167.12c-1.74-.9-1.23-6.59.81-7.33,2.63-.95,5.34,1.79,5.36,3.82.02,2.8-2.21,5.55-6.16,3.51Z"/>
  </g>
</svg>