<?xml version="1.0" encoding="UTF-8"?>
<svg id="Layer_0_Image" data-name="Layer 0 Image" xmlns="http://www.w3.org/2000/svg" viewBox="0 0 400 400">
  <defs>
    <style>
      .cls-1 {
        fill: #002615;
      }

      .cls-2 {
        fill: #00cc73;
      }

      .cls-3 {
        fill: #002615;
      }

      .cls-4 {
        fill: #fff;
      }

      .cls-5 {
        fill: #faf9ec;
      }
    </style>
  </defs>
  <path class="cls-2" d="M155.67,319.27c-23.44-16.16-38.01-39.88-45.87-67.5-12.14-.5-22.29-6.39-27.96-15.89-6.35-10.62-6.27-22.28.65-33.01-9.2-2.43-23.42-17.15-25.5-22.21-1.68-4.07,13.48.12,18.14-12.29,10.46-27.9,7.58-45.3,30.03-69.07l-11.14-7.38c-1.57-1.04-3.12-4.27-3.17-6.58,35.61.9,25.79-26.09,71.87-39.39,10.86-3.13,21.67-5.56,33.38-4.33,18.45,1.95,47.56,8.46,60.13,24.2,20.85-7.97,46.91,5.04,57.96,22.51,21.35,33.73-3.29,53.81,25.3,80.25l-11.93,5.77c2.38,9.96-.54,20.88-11.17,26.15,5.74,21.8-6.95,42.25-27.94,49.39-5.34,25.25-16.63,47.54-35.36,63.94-27.93,24.45-66.28,26.9-97.41,5.44ZM215.53,122.89c17.8,13.12,31.8,11.89,30.95,39.21l10.76-9.05c12.3,6.93,16.19,22.99,17.34,38.64,14.89-8.27,31.14-7.86,40.39,6.21,10.02-5.85,13.05-16.45,7.26-26.84l11.98-3.06c-10.05-10.57-13.81-22.57-13.27-36.24.72-18.27-2.55-36.73-16.28-50.02-11.28-10.92-32.91-20.91-48.72-11.42-7.98-9.79-18.73-16.01-31.02-19.54-30.68-8.82-49.94-9.32-79.47,5.81-23.99,12.29-19.22,27.53-49.33,32.49l14.3,9.76c-25.36,24.2-21.48,42.7-32.26,70.38-2.96,7.6-8.02,10.57-16.77,12.82l13.22,13.31c2.26,2.27,9.23,4.71,12.11,3.49,6.51-2.74,12.56-3.99,19.46-4.13,3.14-14.32,7.21-28.54,16.99-38.88,6.04-6.39,11.5-12.96,20.57-13.81-1.05,6.68-3.97,12.7-9.02,17.99,29.66,10.29,65.4-9.79,80.82-37.13ZM186.29,206.55l12.5.11c2.12-14.56,13.52-24.37,27.37-25.67,13.8-1.3,26.4,5.92,31.52,19.95l12.59-7.32c1.65-13.81-2.32-27.41-12.48-36.41l-13.35,10.58-2.77-.41c-.4-.06-.52-2.65-.27-3.22,4.39-9.85-.14-23.63-11.29-28.72-4.61-2.1-9.04-5-13.8-7.79-14.15,22.47-37.99,37.2-64.7,38.38-1.63.07-24.64-2.21-22.9-4.91,2.76-4.26,12.23-9.17,8.15-13.44-16.4,11.22-24.13,28.16-27.16,47.06l19.65,9.78c3.96-12.84,13.91-19.55,25.26-20.49,12.09-.99,21.84,4.99,28.65,15.34,1.83-4.71,1.33-8.38,5.21-11.43l-2.19,18.61ZM254.95,207.44c.05-10.08-7.08-17.34-13.45-20.54-8.49-4.26-17.54-3.66-25.3.21-12.9,6.43-18.5,21.89-10.5,34.06,6.65,10.11,18.8,13.72,30.06,10.44,9.96-2.91,19.12-11.5,19.19-24.16ZM182.07,213.68c1.54-13.99-9.31-24.47-21.04-26.3-13.17-2.05-25.96,5.7-28.49,19.07-2.71,14.34,8.15,26.21,20.81,28.13,13.69,2.07,27.1-6.32,28.71-20.9ZM177.34,247.01l.84-16.38c-11.57,7.85-22.49,9.89-33.99,4.24-9.23-4.53-15.95-14.39-15.47-27.08l-19.85-9.71c-6.03,45.13,13.44,98.71,55.01,122.55,29.41,16.86,64.26,12.23,89.01-10.93,17.68-16.54,27.81-37.99,33.1-62.29,15.81-5.06,27.74-18.14,28.73-35.19.4-6.93-2.64-13.84-6.98-17.66-14.21-12.51-29.59.1-36.75,3.56-4.24,2.05-9.49,3.71-12.93,7.04.98,14.85-8.79,26.34-22.49,29.79-17.53,4.41-33.84-6.15-37.2-23.5-2.28-2.61-11.27-2.85-12.2.33-2.62,8.95-9.84,40.55-2.49,44.97,7.21,4.34,14.29-5.28,19.54-9.16-.36,8.23-9.24,13.13-16.71,13.04-7.08-.08-9.5-6.76-9.15-13.63ZM108.24,247.14c-3.37-18.23-4.66-32.58-3.22-48.53-13.17-2.7-24.67,7.29-24.64,20.54.03,15.23,12.78,30.26,27.87,27.98Z"/>
  <path class="cls-1" d="M215.53,122.89c-15.42,27.34-51.16,47.42-80.82,37.13,5.05-5.3,7.97-11.31,9.02-17.99-9.07.86-14.53,7.43-20.57,13.81-9.77,10.34-13.85,24.56-16.99,38.88-6.9.14-12.95,1.39-19.46,4.13-2.89,1.21-9.86-1.22-12.11-3.49l-13.22-13.31c8.75-2.25,13.8-5.22,16.77-12.82,10.79-27.68,6.91-46.18,32.26-70.38l-14.3-9.76c30.12-4.96,25.34-20.2,49.33-32.49,29.53-15.13,48.79-14.63,79.47-5.81,12.3,3.54,23.04,9.75,31.02,19.54,15.81-9.5,37.44.5,48.72,11.42,13.73,13.29,17,31.75,16.28,50.02-.54,13.67,3.22,25.68,13.27,36.24l-11.98,3.06c5.79,10.4,2.77,20.99-7.26,26.84-9.24-14.07-25.5-14.49-40.39-6.21-1.16-15.66-5.05-31.71-17.34-38.64l-10.76,9.05c.85-27.31-13.15-26.09-30.95-39.21Z"/>
  <path class="cls-5" d="M177.34,247.01c-.35,6.87,2.08,13.54,9.15,13.63,7.46.09,16.34-4.81,16.71-13.04-5.25,3.88-12.33,13.5-19.54,9.16-7.35-4.42-.13-36.02,2.49-44.97.93-3.18,9.92-2.94,12.2-.33,3.36,17.36,19.67,27.92,37.2,23.5,13.7-3.45,23.48-14.94,22.49-29.79,3.45-3.33,8.7-5,12.93-7.04,7.16-3.46,22.55-16.07,36.75-3.56,4.34,3.82,7.38,10.73,6.98,17.66-.99,17.05-12.92,30.13-28.73,35.19-5.29,24.3-15.43,45.74-33.1,62.29-24.75,23.16-59.6,27.8-89.01,10.93-41.56-23.83-61.04-77.41-55.01-122.55l19.85,9.71c-.48,12.69,6.24,22.55,15.47,27.08,11.5,5.65,22.42,3.61,33.99-4.24l-.84,16.38ZM187.62,286.84c5.18,3.54,10.49,4.41,16.53,2.18,3.65-1.35,9.14-4.92,8.58-10.58-4.72,3.84-8.66,7.9-12.49,8.47-5.89.87-10.16-1.36-13.33-6.57-1.42.95-1.15,5.22.71,6.49Z"/>
  <path class="cls-5" d="M186.29,206.55l2.19-18.61c-3.88,3.04-3.38,6.72-5.21,11.43-6.81-10.35-16.56-16.34-28.65-15.34-11.35.93-21.29,7.65-25.26,20.49l-19.65-9.78c3.03-18.9,10.76-35.83,27.16-47.06,4.08,4.28-5.39,9.18-8.15,13.44-1.75,2.7,21.27,4.98,22.9,4.91,26.71-1.18,50.55-15.91,64.7-38.38,4.75,2.79,9.19,5.69,13.8,7.79,11.15,5.09,15.68,18.87,11.29,28.72-.25.57-.14,3.16.27,3.22l2.77.41,13.35-10.58c10.16,9,14.14,22.6,12.48,36.41l-12.59,7.32c-5.13-14.03-17.72-21.25-31.52-19.95-13.85,1.31-25.25,11.11-27.37,25.67l-12.5-.11Z"/>
  <path class="cls-4" d="M254.95,207.44c-.07,12.66-9.22,21.26-19.19,24.16-11.26,3.29-23.41-.33-30.06-10.44-8.01-12.17-2.41-27.62,10.5-34.06,7.76-3.87,16.82-4.47,25.3-.21,6.37,3.2,13.5,10.46,13.45,20.54ZM224.33,197.12c-.96-1.95-5.92-1.33-7.19.24-1.42,1.76-2.17,6.04-.56,6.93,3.18,1.76,10.31-1.95,7.75-7.17Z"/>
  <path class="cls-4" d="M182.07,213.68c-1.61,14.58-15.02,22.97-28.71,20.9-12.66-1.91-23.52-13.78-20.81-28.13,2.52-13.37,15.32-21.12,28.49-19.07,11.72,1.83,22.58,12.31,21.04,26.3ZM154.19,204.5c.79-1.16-.18-4.96-1.56-5.25-1.37-.29-4.88.62-5.48,1.88-.91,1.92-1.66,4.3-1.68,5.65-.03,1.35,3.69,2.97,4.78,2.18,1.09-.79,2.65-2.58,3.93-4.46Z"/>
  <path class="cls-5" d="M108.24,247.14c-15.09,2.27-27.83-12.75-27.87-27.98-.03-13.25,11.48-23.25,24.64-20.54-1.44,15.94-.15,30.3,3.22,48.53Z"/>
  <path class="cls-2" d="M187.62,286.84c-1.86-1.27-2.13-5.54-.71-6.49,3.17,5.2,7.44,7.43,13.33,6.57,3.83-.56,7.77-4.62,12.49-8.47.56,5.65-4.93,9.23-8.58,10.58-6.04,2.23-11.35,1.36-16.53-2.18Z"/>
  <path class="cls-3" d="M224.33,197.12c2.56,5.22-4.57,8.93-7.75,7.17-1.61-.89-.86-5.17.56-6.93,1.27-1.57,6.23-2.2,7.19-.24Z"/>
  <path class="cls-3" d="M154.19,204.5c-1.28,1.88-2.84,3.67-3.93,4.46-1.09.79-4.81-.83-4.78-2.18.03-1.35.77-3.73,1.68-5.65.6-1.26,4.1-2.17,5.48-1.88,1.37.29,2.35,4.09,1.56,5.25Z"/>
</svg>