<?xml version="1.0" encoding="UTF-8"?>
<svg id="Layer_0_Image" data-name="Layer 0 Image" xmlns="http://www.w3.org/2000/svg" viewBox="0 0 400 400">
  <defs>
    <style>
      .cls-1 {
        fill: #002615;
      }

      .cls-2 {
        fill: #00cc73;
      }

      .cls-3 {
        fill: #faf9ec;
      }
    </style>
  </defs>
  <g>
    <path class="cls-2" d="M263.52,338.19c-10.2,1.2-20.61.8-29.9-2.46-10.44-3.67-18.8-17.91-23.33-28.72l-17.31,4.52c-3.98,10.63-11.13,19.23-21.86,24.02-18.82,8.41-44.84,10.81-63.12-.41-3.17-1.94-6.41-3.04-10.24-2.88-19.22.83-35.49-10.4-41.43-28.45-4.09-12.42-4.4-25.47.56-37.81l13.51-33.63c1.73-4.31,3.26-11.82.95-15.83-6.97-12.08-7.59-25.11.7-36.73-.1-64.33,45.49-121.08,110.67-127.53,17.6-1.74,34.32,1.23,50.62,7.07,6.06-5.7,13.55-8.25,21.64-7.34-3.62,4.42-5.95,6.98-8.31,11.92l13.81.43-6,6.24c4.99,3.21,11.27,6.02,15.43,10.54,6.4,6.97,11.89,14.7,16.16,23.09l11.91,23.41c6.99,13.75,13.75,26.83,18.89,41.46l16.58,47.25c4.84,13.8,12.03,26.42,12.97,41.43,1.04,16.54.15,33.43-7.61,48.29-8.48,16.23-27.31,25.45-45.15,25.65-5.13.06-11.01-2.24-15.27.05-4.71,2.54-8.91,5.72-14.86,6.43ZM262.05,335.9c6.06-.49,10.31-4.14,15.46-6.54,5.09-2.38,12.02.03,18.11-.28,16.63-.86,33.86-9.92,41.4-25.35,7.5-15.36,8.49-32.99,6.43-49.58-1.67-13.45-8.11-24.57-12.45-37.01l-15.93-45.6c-5.79-16.57-13.22-31.3-21.38-46.71-11.63-21.93-19.03-43.27-43.73-53.26l2.65-4.95-6.63,1.89c-3.05-3.47-.4-8.19,1.7-13.1-5.83-.14-10.13,3.02-12.98,7.37-34.31-14.24-72.81-10.15-103.96,10.46-34.54,22.86-55.46,61.45-55.98,104.07l12.06-2.38,5.63-1.95c5.72-1.98,12.69-1.66,18.75-3.63,32.48-10.56,62.83-26.54,89.16-48.09,5.97-4.89,9.88-10.38,14.17-17.34,10.18,25.04,25.9,46.8,47.63,61.97,11.92,8.32,22.76.84,31.76,13.9,12.39,18-5.67,43.68-26.44,50.26-8.07,31.03-23.96,59.7-53.67,75.05-.48,2.96,1.08,6.64,2.89,9.34,11.87,17.71,16.9,23.78,45.39,21.45ZM242.22,277.97c11.68-14.83,18.4-31.83,23.11-49.92,13.84-4.75,25.21-14.72,29.03-28.61,2.01-7.31.76-14.76-4.16-20.13-10.25-11.21-14.82.22-33.87-14.45-18.36-14.14-32.01-32.59-41.96-54.37-22.79,28.07-84.87,60.77-120.72,64.97-3.09,45.25,15.26,100.18,55.82,124.11,33.51,19.78,69.35,8.13,92.76-21.6ZM97.64,233.15c-4.86-18.68-7.3-35.84-7.13-54.86-6.32-1.5-13.72.17-17.57,5.43-6.46,8.82-5.58,20.33-.27,29.59,5.31,9.32,13.43,16.1,24.97,19.85ZM189.7,311.89c-46.3,2.01-77.01-35.47-90.64-74.93-8.93-3.43-15.85-7.91-23.34-13.55-1.06,3.46-1.83,7.05-2.96,9.88l-13.48,33.66c-5.71,14.25-4.49,30.38,2.91,43.55,9.28,16.54,24.88,20.1,42.56,19.66,20.66,17.27,75.8,12.3,84.95-18.27Z"/>
    <path class="cls-1" d="M262.05,335.9c-28.49,2.32-33.52-3.74-45.39-21.45-1.81-2.7-3.36-6.38-2.89-9.34,29.71-15.34,45.6-44.02,53.67-75.05,20.77-6.58,38.83-32.26,26.44-50.26-8.99-13.06-19.84-5.59-31.76-13.9-21.74-15.17-37.45-36.93-47.63-61.97-4.29,6.97-8.2,12.46-14.17,17.34-26.33,21.55-56.67,37.53-89.16,48.09-6.06,1.97-13.03,1.65-18.75,3.63l-5.63,1.95-12.06,2.38c.53-42.62,21.44-81.21,55.98-104.07,31.15-20.61,69.65-24.7,103.96-10.46,2.85-4.35,7.16-7.51,12.98-7.37-2.09,4.9-4.74,9.63-1.7,13.1l6.63-1.89-2.65,4.95c24.71,9.99,32.11,31.33,43.73,53.26,8.17,15.41,15.6,30.14,21.38,46.71l15.93,45.6c4.34,12.44,10.79,23.56,12.45,37.01,2.06,16.59,1.07,34.22-6.43,49.58-7.54,15.43-24.77,24.49-41.4,25.35-6.09.31-13.01-2.1-18.11.28-5.14,2.4-9.4,6.05-15.46,6.54Z"/>
    <path class="cls-3" d="M242.22,277.97c-23.41,29.73-59.25,41.37-92.76,21.6-40.56-23.94-58.91-78.86-55.82-124.11,35.85-4.21,97.93-36.91,120.72-64.97,9.95,21.78,23.6,40.23,41.96,54.37,19.05,14.67,23.63,3.25,33.87,14.45,4.92,5.38,6.17,12.83,4.16,20.13-3.81,13.89-15.19,23.86-29.03,28.61-4.71,18.09-11.43,35.09-23.11,49.92ZM141.31,195.95c.65,1.35,4.13,1.99,5.36,1.14,1.35-.94,2.55-3.85,2.41-5.59-.12-1.48-2.99-3.33-4.76-3.07-2.95.45-4.28,4.88-3.01,7.52ZM209.22,188.48c-2.19.37-3.27,4.38-2.5,6.67.5,1.47,3.68,1.77,5.53,1.1,1.41-.52,2.56-3.43,2.31-5.34-.2-1.54-3.27-2.78-5.35-2.43ZM168.72,216.01c3-5.9,6.92-10.78,8.65-16.91-7.92,6.93-17.55,23.81-10.98,32.29,3.83,4.95,11.27,2.95,10.79,1.48l-.7-2.11c-2.1.67-4.29,1.3-5.43,1.05-4.46-.98-5.97-8.64-2.33-15.78ZM168.18,258.66c2.49,8.21,12.01,9.08,17.92,7.27,4.44-1.36,8.61-5.46,7.06-10.08-2.74,3.12-4.7,6.14-6.9,7.32-2.84,1.52-8.51.98-10.72-.29l-7.35-4.21Z"/>
    <path class="cls-1" d="M189.7,311.89c-9.15,30.57-64.29,35.54-84.95,18.27-17.68.43-33.27-3.13-42.56-19.66-7.39-13.17-8.62-29.29-2.91-43.55l13.48-33.66c1.14-2.84,1.9-6.42,2.96-9.88,7.49,5.65,14.41,10.12,23.34,13.55,13.63,39.46,44.34,76.94,90.64,74.93Z"/>
    <path class="cls-3" d="M97.64,233.15c-11.54-3.75-19.66-10.52-24.97-19.85-5.3-9.25-6.19-20.76.27-29.59,3.85-5.25,11.25-6.93,17.57-5.43-.17,19.02,2.27,36.18,7.13,54.86Z"/>
    <path class="cls-2" d="M141.31,195.95c-1.28-2.63.06-7.07,3.01-7.52,1.77-.27,4.64,1.58,4.76,3.07.14,1.74-1.05,4.66-2.41,5.59-1.23.85-4.7.21-5.36-1.14Z"/>
    <path class="cls-2" d="M209.22,188.48c2.08-.35,5.15.89,5.35,2.43.25,1.9-.9,4.82-2.31,5.34-1.85.68-5.04.38-5.53-1.1-.77-2.29.31-6.3,2.5-6.67Z"/>
  </g>
  <rect class="cls-3" x="164.21" y="192.51" width="24.78" height="47.23"/>
  <path class="cls-2" d="M174.51,233.12l2.81.28c.44.04.62.7.4,1.11-.93,1.75-9.37,1.23-12.72-2.13-7.25-7.26-.21-22.92,6.04-30.23,1.45,5.85-10.6,18.13-5.51,26.63,1.6,2.68,5.52,4,8.97,4.34Z"/>
  <rect class="cls-3" x="153.04" y="249.63" width="53.43" height="23.44"/>
  <path class="cls-2" d="M209.15,252.28c-13.32,12.31-31.55,15.7-47.53,8.76-.94-.41-2.92-1.51-2.68-2.28s1.4-4.37.58-1.81c14.83,7.33,30.37,5.84,43.62-3.66,1.72-1.23,3.99-1.94,6-1.01Z"/>
</svg>