<?xml version="1.0" encoding="UTF-8"?>
<svg id="Layer_0_Image" data-name="Layer 0 Image" xmlns="http://www.w3.org/2000/svg" viewBox="0 0 400 400">
  <defs>
    <style>
      .cls-1 {
        fill: #00cc73;
      }

      .cls-2 {
        fill: #faf9ec;
      }
    </style>
  </defs>
  <path d="M268.95,355.04c-11.07,1.31-22.37.87-32.46-2.68-11.34-3.98-20.4-19.44-25.32-31.17l-18.78,4.91c-4.32,11.54-12.08,20.87-23.73,26.07-20.42,9.13-48.68,11.73-68.51-.45-3.44-2.11-6.96-3.3-11.11-3.12-20.86.91-38.53-11.29-44.97-30.88-4.44-13.49-4.78-27.65.6-41.05l14.66-36.5c1.88-4.67,3.54-12.83,1.03-17.19-7.57-13.12-8.23-27.25.76-39.86-.11-69.83,49.38-131.42,120.12-138.43,19.1-1.89,37.26,1.34,54.95,7.67,6.58-6.19,14.71-8.95,23.49-7.97-3.93,4.79-6.46,7.58-9.02,12.94l14.99.47-6.51,6.77c5.41,3.48,12.23,6.53,16.74,11.44,6.95,7.56,12.91,15.95,17.54,25.06l12.93,25.41c7.59,14.92,14.93,29.12,20.5,45.01l18,51.29c5.26,14.98,13.06,28.67,14.08,44.96,1.13,17.95.16,36.28-8.26,52.42-9.2,17.61-29.64,27.62-49.01,27.84-5.57.06-11.95-2.43-16.57.06-5.11,2.76-9.67,6.21-16.13,6.98ZM267.35,352.55c6.57-.54,11.2-4.49,16.78-7.1,5.53-2.58,13.04.04,19.66-.31,18.05-.93,36.76-10.77,44.94-27.52,8.14-16.67,9.21-35.8,6.98-53.81-1.81-14.6-8.8-26.67-13.52-40.17l-17.29-49.49c-6.28-17.99-14.35-33.98-23.21-50.7-12.62-23.8-20.65-46.97-47.47-57.81l2.87-5.37-7.2,2.05c-3.31-3.77-.43-8.89,1.84-14.22-6.32-.15-11,3.28-14.09,8-37.25-15.46-79.03-11.02-112.85,11.36-37.49,24.81-60.19,66.7-60.77,112.96l13.09-2.58,6.11-2.12c6.2-2.15,13.78-1.8,20.35-3.94,35.26-11.46,68.19-28.81,96.77-52.2,6.48-5.31,10.73-11.27,15.39-18.83,11.05,27.18,28.11,50.8,51.7,67.26,12.94,9.03,24.71.91,34.47,15.09,13.45,19.53-6.16,47.41-28.7,54.55-8.76,33.68-26.01,64.8-58.25,81.46-.52,3.22,1.17,7.21,3.13,10.14,12.88,19.23,18.34,25.81,49.26,23.29ZM245.82,289.67c12.68-16.1,19.97-34.55,25.09-54.19,15.02-5.15,27.37-15.97,31.51-31.06,2.18-7.93.82-16.02-4.52-21.85-11.12-12.16-16.09.23-36.77-15.69-19.93-15.34-34.75-35.37-45.55-59.02-24.74,30.47-92.12,65.96-131.04,70.52-3.36,49.12,16.56,108.73,60.59,134.72,36.38,21.47,75.27,8.83,100.69-23.44ZM88.9,241.03c-5.28-20.28-7.93-38.9-7.74-59.55-6.86-1.63-14.89.19-19.07,5.89-7.01,9.58-6.05,22.07-.3,32.11,5.76,10.12,14.57,17.47,27.1,21.54ZM188.83,326.48c-50.25,2.18-83.59-38.5-98.38-81.33-9.69-3.73-17.2-8.58-25.33-14.71-1.16,3.75-1.98,7.65-3.21,10.72l-14.63,36.53c-6.2,15.47-4.87,32.97,3.16,47.27,10.08,17.95,27,21.81,46.19,21.34,22.43,18.75,82.27,13.35,92.21-19.83Z"/>
  <path class="cls-1" d="M267.35,352.55c-30.92,2.52-36.38-4.06-49.26-23.29-1.96-2.93-3.65-6.92-3.13-10.14,32.25-16.66,49.49-47.78,58.25-81.46,22.54-7.15,42.14-35.02,28.7-54.55-9.76-14.18-21.53-6.06-34.47-15.09-23.6-16.47-40.65-40.08-51.7-67.26-4.66,7.56-8.9,13.52-15.39,18.83-28.58,23.39-61.52,40.74-96.77,52.2-6.57,2.14-14.15,1.79-20.35,3.94l-6.11,2.12-13.09,2.58c.57-46.26,23.27-88.15,60.77-112.96,33.82-22.37,75.6-26.81,112.85-11.36,3.09-4.72,7.77-8.15,14.09-8-2.27,5.32-5.15,10.45-1.84,14.22l7.2-2.05-2.87,5.37c26.82,10.84,34.85,34.01,47.47,57.81,8.87,16.73,16.93,32.71,23.21,50.7l17.29,49.49c4.72,13.5,11.71,25.58,13.52,40.17,2.23,18.01,1.16,37.15-6.98,53.81-8.18,16.75-26.88,26.59-44.94,27.52-6.61.34-14.13-2.28-19.66.31-5.58,2.61-10.2,6.56-16.78,7.1Z"/>
  <path class="cls-2" d="M245.82,289.67c-25.41,32.27-64.31,44.91-100.69,23.44-44.03-25.98-63.94-85.6-60.59-134.72,38.92-4.57,106.3-40.06,131.04-70.52,10.8,23.65,25.62,43.67,45.55,59.02,20.68,15.92,25.65,3.53,36.77,15.69,5.34,5.84,6.69,13.92,4.52,21.85-4.14,15.08-16.49,25.9-31.51,31.06-5.12,19.64-12.41,38.09-25.09,54.19ZM136.3,200.64c.71,1.46,4.48,2.16,5.81,1.24,1.47-1.02,2.77-4.18,2.61-6.07-.13-1.61-3.25-3.62-5.17-3.33-3.2.49-4.65,5.3-3.26,8.16ZM210,192.54c-2.38.4-3.55,4.75-2.71,7.24.54,1.6,4,1.92,6.01,1.19,1.53-.56,2.78-3.73,2.51-5.79-.22-1.67-3.55-3.02-5.8-2.64ZM166.05,222.42c3.26-6.4,7.51-11.7,9.39-18.36-8.59,7.52-19.04,25.84-11.92,35.05,4.16,5.37,12.23,3.2,11.71,1.6l-.76-2.29c-2.28.73-4.66,1.41-5.89,1.14-4.84-1.07-6.48-9.38-2.53-17.13ZM165.47,268.71c2.7,8.91,13.03,9.86,19.45,7.89,4.82-1.48,9.35-5.92,7.66-10.94-2.97,3.38-5.1,6.66-7.49,7.94-3.09,1.65-9.24,1.06-11.64-.32l-7.98-4.57Z"/>
  <path class="cls-1" d="M188.83,326.48c-9.93,33.18-69.78,38.58-92.21,19.83-19.19.47-36.12-3.39-46.19-21.34-8.02-14.3-9.35-31.8-3.16-47.27l14.63-36.53c1.23-3.08,2.06-6.97,3.21-10.72,8.13,6.13,15.64,10.98,25.33,14.71,14.79,42.83,48.13,83.51,98.38,81.33Z"/>
  <path class="cls-2" d="M88.9,241.03c-12.53-4.07-21.34-11.42-27.1-21.54-5.76-10.04-6.72-22.53.3-32.11,4.18-5.7,12.21-7.52,19.07-5.89-.19,20.64,2.46,39.27,7.74,59.55Z"/>
  <path d="M166.05,222.42c-3.95,7.75-2.32,16.07,2.53,17.13,1.23.27,3.61-.41,5.89-1.14l.76,2.29c.53,1.6-7.55,3.77-11.71-1.6-7.12-9.2,3.33-27.53,11.92-35.05-1.87,6.66-6.12,11.96-9.39,18.36Z"/>
  <path d="M165.47,268.71l7.98,4.57c2.4,1.38,8.55,1.96,11.64.32,2.39-1.28,4.52-4.56,7.49-7.94,1.68,5.02-2.84,9.46-7.66,10.94-6.42,1.97-16.75,1.02-19.45-7.89Z"/>
  <path d="M136.3,200.64c-1.39-2.86.06-7.67,3.26-8.16,1.92-.29,5.04,1.72,5.17,3.33.15,1.89-1.14,5.05-2.61,6.07-1.34.92-5.11.22-5.81-1.24Z"/>
  <path d="M210,192.54c2.25-.38,5.58.97,5.8,2.64.27,2.06-.97,5.23-2.51,5.79-2.01.74-5.47.41-6.01-1.19-.84-2.49.33-6.84,2.71-7.24Z"/>
</svg>