<?xml version="1.0" encoding="UTF-8"?>
<svg id="Layer_0_Image" data-name="Layer 0 Image" xmlns="http://www.w3.org/2000/svg" viewBox="0 0 400 400">
  <defs>
    <style>
      .cls-1 {
        fill: #002615;
      }

      .cls-2 {
        fill: #00cc73;
      }

      .cls-3 {
        fill: #faf9ec;
      }
    </style>
  </defs>
  <path class="cls-2" d="M281.79,338.94c-21.22,8.81-51.47-3.37-55.73-27.37-16.15,9.27-34.35,12.53-52.62,8.61-13.46,20.44-38.04,20.23-57.13,7.82-10.87,10.68-24.11,13.44-38.02,10.42-20.34-4.42-33.39-21.18-32.48-42.26.46-10.56,2.58-20,7.14-29.56,2.96-6.2,16.07-35.86,12.68-40.69-10.45-14.89-13.8-31.21,1.78-44.16-3.25-27.17,3.93-53.28,19.12-75.88,26.82-39.92,73.03-63.41,121.15-62.68,25.17.38,47.12,8.51,67.37,22.39,11.15,7.64,20.77,15.87,27.76,27.7l11.72,19.82c17.82,30.14,12.92,52.7,27.16,79.75,14.51,27.58,23.83,56.73,25.03,88.16,1.07,28.1-8.31,34.57-24.03,50.81-16.79,17.35-40.81,23.81-60.89,7.13ZM229.54,310.12c-2.02,3.21,1.35,9.06,3.01,11.43,11.5,16.32,31.78,21.96,49.82,14.43,19.15,17.09,41.78,10.81,57.95-5.42,15.92-15.98,25-23.25,23.92-49.55-1.28-30.93-10.38-59.53-24.64-86.63s-9.54-48.24-26.05-77.71c-5.88-10.5-11.57-20.7-18.8-30.29-5.88-7.8-13.32-13.12-21.14-18.61-21.25-14.91-44.88-22.79-71.36-22.12-44.66,1.14-86.62,23.08-112.27,59.69-14.02,20.01-21.72,43.08-20.68,67.46,1,23.49,10.38,46.25,28.46,62.06-8.43-43.31-.23-88.85,31.15-118.88,16.61-15.12,37.87-22.88,60.01-20.34,12.54,28.4,32.21,53.19,58.26,69.66,6.39,4.04,14.35,7.21,21.26,5.32,9.57-2.62,18.72-3.08,27.54,2.97,6.05,4.15,11.11,12.08,11.93,21.23,1.97,21.83-13.26,41.95-35.61,43.79-6.05,30.46-17.74,51.83-42.74,71.49ZM304.46,190.38c-4.39-15.92-19.97-22.71-35.09-17.29-6.33,2.27-14.06-.76-19.97-3.78-25.9-13.25-50.58-44.03-62.06-70.94-40.41-4.44-71.28,26.05-83.3,61.89-12.75,38.01-7.93,80,12.99,114.13,9.74,15.89,22.68,28.41,38.93,36.78,30.46,15.68,65.03,7.8,87.67-17.52,14.5-16.21,23.02-36.15,26.52-57.71,22.89.46,40.14-24.39,34.3-45.56ZM95,237.33c-14.48-16.13-23.5-31.86-26.88-51.74-7.9,4.86-10.34,14.44-7.92,23.64,3.98,15.18,18.76,29.57,34.81,28.11ZM117.05,325.36c7.19,4.26,13.46,7.04,20.8,8.68,12.68.89,24.8-2.69,32.81-14.34-17.96-5.39-32.58-15.01-44.59-28.84-12.53-14.24-20.87-30.61-26.27-49.62-11.55.4-21.39-3.98-30.52-11.26-4.02,14.16-8.72,25.97-14.11,38.3-4.44,8.05-5.81,16.46-6.7,25.28-2.1,20.74,10.39,38.3,30.81,42.44,18.98,3.85,23.53-2.02,37.78-10.64Z"/>
  <path class="cls-1" d="M229.54,310.12c25-19.67,36.7-41.04,42.74-71.49,22.35-1.84,37.59-21.96,35.61-43.79-.83-9.15-5.88-17.08-11.93-21.23-8.81-6.05-17.96-5.58-27.54-2.97-6.91,1.89-14.86-1.28-21.26-5.32-26.05-16.47-45.72-41.26-58.26-69.66-22.14-2.54-43.4,5.22-60.01,20.34-31.38,30.03-39.58,75.57-31.15,118.88-18.09-15.8-27.47-38.56-28.46-62.06-1.03-24.38,6.66-47.45,20.68-67.46,25.65-36.61,67.62-58.55,112.27-59.69,26.48-.68,50.11,7.21,71.36,22.12,7.82,5.49,15.27,10.81,21.14,18.61,7.23,9.58,12.92,19.79,18.8,30.29,16.51,29.47,11.63,50.3,26.05,77.71s23.36,55.7,24.64,86.63c1.09,26.3-7.99,33.57-23.92,49.55-16.17,16.22-38.8,22.5-57.95,5.42-18.04,7.53-38.32,1.89-49.82-14.43-1.67-2.36-5.03-8.22-3.01-11.43Z"/>
  <path class="cls-3" d="M304.46,190.38c5.84,21.17-11.41,46.02-34.3,45.56-3.51,21.56-12.03,41.5-26.52,57.71-22.64,25.32-57.21,33.19-87.67,17.52-16.25-8.37-29.19-20.89-38.93-36.78-20.92-34.13-25.74-76.12-12.99-114.13,12.02-35.84,42.89-66.33,83.3-61.89,11.48,26.91,36.16,57.7,62.06,70.94,5.91,3.02,13.64,6.05,19.97,3.78,15.12-5.43,30.7,1.37,35.09,17.29ZM214.92,194.81c.1-1.34-.51-3.75-1.47-3.78-.76-.03-2.67.34-3.41.7-2.73,1.34-4.63,7.06-1.06,8.52,1.96.8,5.77-3.18,5.94-5.44ZM143.08,193.89c-2.12-1.35-5.69-.13-6.64,1.87-.75,1.58-1.2,4.93.91,6.02,1.92,1,4.86-.86,5.75-2.28.72-1.16,1.27-4.78-.03-5.6ZM173.37,239.86c-3.4-.7-7.15-2.43-8.47-5.26-4.17-8.99,9.1-19.93,8.27-25.9-6.99,6.62-15.63,21.45-9.19,29.43,2.98,3.7,11.31,5.09,12.42,3.45.26-.39.15-1.06-.28-1.15l-2.77-.57ZM192.1,258.02c-5.71,8.48-13.54,11.19-23.12,13.09,4.66,6.44,29.25-8.98,23.12-13.09Z"/>
  <path class="cls-1" d="M117.05,325.36c-14.25,8.62-18.8,14.49-37.78,10.64-20.42-4.14-32.9-21.7-30.81-42.44.89-8.82,2.26-17.23,6.7-25.28,5.39-12.33,10.09-24.14,14.11-38.3,9.12,7.28,18.96,11.66,30.52,11.26,5.4,19.01,13.74,35.37,26.27,49.62,12.01,13.83,26.63,23.45,44.59,28.84-8,11.65-20.13,15.24-32.81,14.34-7.34-1.64-13.61-4.42-20.8-8.68Z"/>
  <path class="cls-3" d="M95,237.33c-16.05,1.46-30.82-12.92-34.81-28.11-2.41-9.2.02-18.78,7.92-23.64,3.38,19.88,12.4,35.61,26.88,51.74Z"/>
  <path class="cls-2" d="M173.37,239.86l2.77.57c.43.09.54.76.28,1.15-1.11,1.64-9.44.24-12.42-3.45-6.44-7.99,2.2-22.81,9.19-29.43.83,5.97-12.44,16.91-8.27,25.9,1.31,2.83,5.06,4.56,8.47,5.26Z"/>
  <path class="cls-2" d="M192.1,258.02c6.13,4.11-18.47,19.53-23.12,13.09,9.58-1.9,17.42-4.61,23.12-13.09Z"/>
  <path class="cls-2" d="M143.08,193.89c1.29.82.75,4.44.03,5.6-.89,1.42-3.83,3.28-5.75,2.28-2.1-1.09-1.66-4.44-.91-6.02.95-2,4.52-3.21,6.64-1.87Z"/>
  <path class="cls-2" d="M214.92,194.81c-.17,2.26-3.98,6.24-5.94,5.44-3.57-1.46-1.67-7.18,1.06-8.52.73-.36,2.64-.73,3.41-.7.95.03,1.57,2.44,1.47,3.78Z"/>
</svg>