<?xml version="1.0" encoding="UTF-8"?>
<svg id="Layer_0_Image" data-name="Layer 0 Image" xmlns="http://www.w3.org/2000/svg" viewBox="0 0 400 400">
  <defs>
    <style>
      .cls-1 {
        fill: #00cc73;
      }

      .cls-2 {
        fill: #fff;
      }

      .cls-3 {
        fill: #faf9ec;
      }
    </style>
  </defs>
  <path class="cls-1" d="M293.7,354.76c-19.42,15.71-51,9.97-63.07-12.49-17.13-6.04-26.08-22.04-21.19-41.07-12.88,3.33-24.18,5.66-36.67,4.26-4.93,14.77-16.65,25.6-31.97,26.46-5.54,7.74-13.53,10.29-22,12.34-21.39,5.19-42.69-3.4-52.6-23.25-12.55-2.38-23.8-9.19-28.77-20.8-6.49-15.17-2.88-32.31,5.66-46.12-13.68-18.59-6.27-50.73,11.27-64.43-1.89-8.77,2.32-15.86,4.21-23.73,3-12.56,6.41-25.01,18.8-31.76-5.96-31.51,8.41-38.57,10.82-43.95l4.82-10.79c4.91-11,18.83-14.35,30.8-13.29,10.28-12.3,23.3-19.2,38.52-22.12,47.43-9.07,63.32,8.43,76.68,10.32,15.9,2.25,29.62,5.66,41.65,16.88,12.19,11.39,21.36,24.6,27.59,40.79,16.21,10.68,29.39,19.92,29.55,42.31,9.58,6.88,18.26,14.83,22.56,26.13,4.11,10.8,2.29,33.51-9.42,43.28.87,6.37,1.57,13.15,1.58,20.48,22.54,7.89,32.51,35.13,21.27,57.19-5.06,9.94-12.48,18.09-24.6,19.74l-7.81,13.85c-4.52,8.02-12.56,14.96-21.18,18.57-8.42,3.53-17.55,2.48-26.5,1.19ZM235.59,283.37c-16.68,16.47-29.25,11.3-22.91,37.71,2.76,11.47,14.12,13.58,19.91,20.22,10.28,11.79,20.46,20.33,37.83,19.29,8.23-.49,15.18-5.08,22.61-7.73,5.44-1.93,30.73,7.3,46.41-20.54l7.89-14.02c11.5-.96,18.57-8.71,23.46-17.87,11.38-21.31.68-47.88-21.53-53.92.84-8.43-.18-15.24-2.87-23.23,8.01-6.1,11.83-14.59,12.69-24.45,1.79-20.56-8.15-31.66-24.61-42.5.98-21.65-11.4-31.47-28.72-41.89-10.19-28.3-36.43-58.96-69.02-55.98-22.58-13.64-47.78-16.73-73.16-11.61-15.36,3.1-28.81,9.91-38.67,22.93-16.21-3.19-30.2,6.44-33.81,22.7-13.8,13.24-12.92,24.41-10.88,43.06-7.89,6.7-17.66,14.78-16.37,26.64,7.75-5.21,16.38-4.29,24.74-2.19l7.88-28.98c24.44,2.62,57.9-10.31,74.36-30.38l20.37,1.76c14.44,1.25,28.65-.23,42.44-6.43,3.61,23.03,9.08,45.27,25.99,61.84,10.6,10.38,16.8-8.51,31.26,3.14,12.8,10.32,15.01,27.52,6.22,41.5-6.49,10.32-16.23,17.03-28,22.02-5.46,23.06-16.52,42.14-33.51,58.92ZM266.32,222.23c12.06-4.88,21.65-11.37,28.22-21.63,8-12.5,6.22-28.85-6.37-37.39-6.34-4.31-14.93-2.44-20.29,2.99-23.35-9.82-32.55-41.33-36.68-65.5-19.68,6.62-38.59,6.21-58.17,2.75-19.58,20.66-45.92,30.58-74.22,31.6-12.78,35.83-11.49,74.3,3.54,108.54,8.96,19.34,21.4,35.56,39.1,47,27.43,17.74,61.49,15.88,86.89-4.8,19.72-16.05,32.17-38.39,37.98-63.56ZM91.66,222.46c-4.89-20.42-5.81-38.6-3.34-58.2-5.84-3.61-13.45-4.05-19.45-1.26-4.04,1.88-8.89,6.87-10.4,12.46-3.9,14.43,1.5,28.67,12.05,38.59,5.76,5.42,12.82,10.18,21.13,8.41ZM139.75,328.77c13.88-.15,25.6-9.98,29.55-23.76-18.09-4.13-33.66-12.2-45.63-25.38l-7.05-7.77c-11.71-12.9-18.35-28.93-23.94-45.19-20.12-1.1-32.06-14.51-37.76-32.87-16.68,12.98-21.78,45.69-7.7,59.93-9.74,13.78-13.65,31.92-5.97,47.21,5.24,10.42,16.46,15.21,27.32,17.75,9.28,19.8,30.41,27.94,51.22,22.26,7.92-2.16,14.85-5.22,19.96-12.19Z"/>
  <path class="cls-2" d="M235.59,283.37c16.99-16.78,28.05-35.86,33.51-58.92,11.77-4.99,21.51-11.7,28-22.02,8.79-13.97,6.58-31.18-6.22-41.5-14.45-11.65-20.66,7.24-31.26-3.14-16.91-16.56-22.39-38.81-25.99-61.84-13.8,6.2-28,7.68-42.44,6.43l-20.37-1.76c-16.46,20.08-49.92,33.01-74.36,30.38l-7.88,28.98c-8.36-2.09-16.98-3.02-24.74,2.19-1.29-11.85,8.48-19.94,16.37-26.64-2.04-18.66-2.91-29.82,10.88-43.06,3.61-16.26,17.6-25.89,33.81-22.7,9.86-13.02,23.31-19.84,38.67-22.93,25.37-5.12,50.57-2.03,73.16,11.61,32.59-2.99,58.83,27.68,69.02,55.98,17.32,10.42,29.7,20.24,28.72,41.89,16.46,10.84,26.4,21.94,24.61,42.5-.86,9.85-4.69,18.34-12.69,24.45,2.69,7.99,3.71,14.8,2.87,23.23,22.21,6.04,32.91,32.61,21.53,53.92-4.89,9.16-11.96,16.91-23.46,17.87l-7.89,14.02c-15.68,27.85-40.97,18.61-46.41,20.54-7.43,2.64-14.38,7.23-22.61,7.73-17.37,1.04-27.54-7.5-37.83-19.29-5.79-6.64-17.15-8.74-19.91-20.22-6.34-26.4,6.23-21.23,22.91-37.71Z"/>
  <path class="cls-3" d="M266.32,222.23c-5.8,25.17-18.25,47.51-37.98,63.56-25.41,20.67-59.46,22.54-86.89,4.8-17.7-11.45-30.14-27.67-39.1-47-15.03-34.25-16.32-72.72-3.54-108.54,28.3-1.01,54.64-10.94,74.22-31.6,19.58,3.46,38.49,3.88,58.17-2.75,4.14,24.18,13.34,55.68,36.68,65.5,5.36-5.43,13.95-7.29,20.29-2.99,12.59,8.54,14.37,24.89,6.37,37.39-6.56,10.25-16.16,16.75-28.22,21.63ZM206.41,173.7c-.7-.44-2.92-.32-3.64.14-2.44,1.58-3.11,4.96-2.98,8.2,2.15.21,4.45.56,5.26-.26,2.43-2.46,3.35-6.84,1.36-8.08ZM140.99,178.83c.28-1.7-1.53-5.05-2.86-4.71-1.12.28-3.34,1.72-4.05,2.73-1.63,2.31-1.59,6.8,1.38,7.51,2.21.53,5.1-2.83,5.54-5.54ZM183.05,217.19c-3.87-2.39-9.76,6.44-19.1,2.74-2.77-1.1-4.82-4.24-8.24-7.87-1.47,5.52,3.26,9.7,8.01,10.8,7.07,1.64,14.02.89,19.32-5.67ZM184.98,239.36c1-2.98-7.93,5.47-18.69,3.94-.47-.07-2.25.39-1.97.73,4.7,5.65,18.68,1.22,20.67-4.67Z"/>
  <path class="cls-2" d="M139.75,328.77c-5.11,6.96-12.05,10.03-19.96,12.19-20.81,5.68-41.94-2.46-51.22-22.26-10.86-2.54-22.08-7.33-27.32-17.75-7.68-15.29-3.77-33.43,5.97-47.21-14.08-14.24-8.98-46.95,7.7-59.93,5.69,18.36,17.64,31.76,37.76,32.87,5.59,16.27,12.23,32.29,23.94,45.19l7.05,7.77c11.97,13.18,27.55,21.25,45.63,25.38-3.95,13.77-15.67,23.61-29.55,23.76Z"/>
  <path class="cls-3" d="M91.66,222.46c-8.31,1.77-15.37-2.99-21.13-8.41-10.55-9.92-15.96-24.16-12.05-38.59,1.51-5.59,6.36-10.58,10.4-12.46,6-2.8,13.61-2.35,19.45,1.26-2.47,19.6-1.55,37.79,3.34,58.2Z"/>
  <path class="cls-1" d="M183.05,217.19c-5.29,6.57-12.24,7.31-19.32,5.67-4.76-1.1-9.48-5.28-8.01-10.8,3.42,3.63,5.46,6.77,8.24,7.87,9.33,3.7,15.23-5.13,19.1-2.74Z"/>
  <path class="cls-1" d="M184.98,239.36c-1.98,5.89-15.96,10.31-20.67,4.67-.28-.33,1.5-.79,1.97-.73,10.77,1.53,19.7-6.92,18.69-3.94Z"/>
  <path class="cls-1" d="M140.99,178.83c-.44,2.71-3.32,6.07-5.54,5.54-2.96-.71-3-5.2-1.38-7.51.71-1.01,2.93-2.45,4.05-2.73,1.34-.34,3.14,3.01,2.86,4.71Z"/>
  <path class="cls-1" d="M206.41,173.7c1.99,1.24,1.07,5.62-1.36,8.08-.81.82-3.11.48-5.26.26-.12-3.25.54-6.62,2.98-8.2.72-.46,2.94-.58,3.64-.14Z"/>
</svg>