<?xml version="1.0" encoding="UTF-8"?>
<svg id="Layer_0_Image" data-name="Layer 0 Image" xmlns="http://www.w3.org/2000/svg" viewBox="0 0 400 400">
  <defs>
    <style>
      .cls-1 {
        fill: #002615;
      }

      .cls-2 {
        fill: #00cc73;
      }

      .cls-3 {
        fill: #fff;
      }

      .cls-4 {
        fill: #faf9ec;
      }
    </style>
  </defs>
  <path class="cls-2" d="M274.18,286.31c-24.21,44.01-72.84,63.7-117.1,37.55-18.82-11.12-32.74-27.54-43.18-46.85-22.53,11.45-48.01.92-56.29-23.18-17.99,4.5-34.84-4.65-41.19-22.8-7.27-20.77,1.69-44.35,18.49-58.73,13.78-11.03,24.06-23.69,33.72-38.3l12.92-19.53c24.52-37.09,74.78-58.86,116.98-67.36,31.02-6.25,36.05,3.67,47.05,3.84,16.65.26,30.95,4.14,44.81,13.5,26.86,18.15,49.12,41.51,66.51,69.23,16.58,26.42,24.31,56.93,21.46,88.14-1.36,14.96-16.04,42.13-36.88,40.65-3.72,9.06-10.66,14.27-18.84,18.75-14.71,8.05-30.93,11.77-48.47,5.09ZM226.21,88.82c3.7,32.96,15.43,60.76,38.04,82.37,4.5,4.3,10.96,8.57,16.14,10.7,9.75-3.23,18.56-3.57,27.4,1.76,6.25,3.76,11.23,11.81,11.81,20.97,1.31,20.61-12.36,38.58-32.06,44.62-3.03,11.74-6.7,22.47-11.55,34.02,20.93,10.17,54.45-3.81,64.14-23.3,20.19.34,34.52-24.68,35.5-40.73,1.82-29.7-5.49-58.65-21.36-83.78-17.61-27.87-40.07-51.44-67.37-69.41-11.76-7.74-23.87-11.2-37.69-11.55-14.35-.36-21.54-8.45-38.83-6.06-44.49,6.16-100.47,29.01-126.13,67.83l-14.03,21.23c-8.71,13.18-18.47,25.02-30.67,35.08-11.93,9.84-19.65,21.44-22.04,36.84-2.66,17.15,4.69,34.76,21.98,41.07,6.24,2.28,14.13.56,20.97-.35,1.61,9.73,6.75,16.07,14.25,21.78,10.54,8.03,26.3,9.04,37.38,1.95l-9.58-24.93c-13.15.31-24.39-6.24-30.2-18.14-4.88-10.01-6.11-24.22,1.69-33.25,48.41-.71,102.28-36.99,133.02-73.55,8.88-10.56,12.99-21.55,19.2-35.17ZM172.68,214.97c7.67-.33,13.23.15,19.24,1.58,5.16-5.7,12.33-10.92,20.92-11.89l17.23-1.94c1.96-1.48,4.71-3.13,6.62-3.52,1.44-.3,2.71,4.45,4.07,5.26l13.66,8.1,21.53-28.49c-28.71-18.27-44.57-49.13-51.23-81.65-6.58,10.86-11.57,19.8-19.2,28.33-28.23,31.56-63.62,53.89-103.85,66.95l18.12,18.46,1.45-13.32c10.79-.54,21.71,0,32.04-1.39,3.87-.52,5.23-1.91,9.42.09l9.87.58.11,12.84ZM168.69,236.75l-47.63.03-.32-15.11-20.14-19.41c-2.65,48,21.6,101.12,64.59,122.26,29.48,14.5,62.8,8.47,86.39-14.23,17.66-16.99,27.99-38.83,33.05-63.57,17.45-4.55,30.98-19.32,31.98-37.98.53-9.76-3.85-18.57-11.66-22.99-6.54-3.7-19.27-5.59-25.89,1.15-7.89,8.02-16.72,18.76-21.64,28.96-2.88,5.95-.27,12.26-8.81,16.34-13.81,6.59-30.91,7.73-45.9,1.64-6.42-2.61-8.77-7.69-12.59-13.22-2.87-4.15-12.88-3.53-17.3-1.15-.42,9.88-2.63,26.13,5.85,31.59,3.59,2.31,8.79,2.71,13.27,2.84-.6,2.37-1.43,3.51-2.45,2.9-13.34.87-19.22-7.88-20.79-20.07ZM101.57,245.01c-3.47-16.43-4.92-31.26-4.84-46.4l-20.53,1.73c-6.68,7.96-5.7,20.93-.19,30.54,4.67,8.13,14.12,16.18,25.56,14.12ZM169.27,205.13c-6.1-.3-6.99,2.24-9.77,5.11-1.86,1.93-5.42-4.11-7.56-4.32-7.79-.73-18.74-.47-28.11-.28l.22,28.29,45.4-.32-.19-28.48ZM253.5,220.11c-1.33-6.56-10.67-13.44-18.67-9.51l-5.49-3.46c-9.45-2.58-35.05,3.14-34.28,14.21.15,2.17,2.73,6.26,5.03,7.5,25.14,13.55,55.38.92,53.42-8.74Z"/>
  <path class="cls-1" d="M226.21,88.82c-6.21,13.63-10.32,24.61-19.2,35.17-30.74,36.56-84.61,72.84-133.02,73.55-7.8,9.03-6.57,23.24-1.69,33.25,5.81,11.91,17.05,18.45,30.2,18.14l9.58,24.93c-11.08,7.08-26.85,6.07-37.38-1.95-7.5-5.71-12.64-12.05-14.25-21.78-6.85.91-14.73,2.63-20.97.35-17.28-6.31-24.64-23.92-21.98-41.07,2.39-15.4,10.11-27,22.04-36.84,12.2-10.06,21.96-21.9,30.67-35.08l14.03-21.23c25.67-38.82,81.64-61.68,126.13-67.83,17.29-2.39,24.47,5.7,38.83,6.06,13.82.35,25.92,3.81,37.69,11.55,27.3,17.97,49.77,41.54,67.37,69.41,15.88,25.13,23.19,54.08,21.36,83.78-.99,16.05-15.31,41.06-35.5,40.73-9.7,19.49-43.21,33.47-64.14,23.3,4.85-11.55,8.52-22.27,11.55-34.02,19.7-6.04,33.37-24.01,32.06-44.62-.58-9.16-5.56-17.21-11.81-20.97-8.85-5.33-17.65-4.99-27.4-1.76-5.18-2.13-11.64-6.4-16.14-10.7-22.61-21.61-34.34-49.41-38.04-82.37Z"/>
  <path class="cls-4" d="M168.69,236.75c1.57,12.19,7.46,20.94,20.79,20.07,1.03.6,1.85-.53,2.45-2.9-4.48-.13-9.68-.53-13.27-2.84-8.48-5.46-6.27-21.71-5.85-31.59,4.42-2.37,14.43-3,17.3,1.15,3.82,5.52,6.18,10.61,12.59,13.22,14.99,6.09,32.1,4.95,45.9-1.64,8.54-4.08,5.93-10.39,8.81-16.34,4.93-10.2,13.76-20.93,21.64-28.96,6.62-6.74,19.35-4.85,25.89-1.15,7.81,4.42,12.19,13.24,11.66,22.99-1.01,18.66-14.53,33.43-31.98,37.98-5.06,24.74-15.39,46.58-33.05,63.57-23.6,22.7-56.91,28.72-86.39,14.23-42.99-21.14-67.24-74.26-64.59-122.26l20.14,19.41.32,15.11,47.63-.03ZM204.6,263.88l-1.79-.22c-4.91,6.29-11.42,9.75-19.17,13.63,7.71,4.88,24.92-12.91,20.97-13.4Z"/>
  <path class="cls-4" d="M172.68,214.97l-.11-12.84-9.87-.58c-4.19-2-5.55-.61-9.42-.09-10.32,1.38-21.24.85-32.04,1.39l-1.45,13.32-18.12-18.46c40.24-13.06,75.62-35.39,103.85-66.95,7.63-8.53,12.62-17.46,19.2-28.33,6.66,32.52,22.52,63.38,51.23,81.65l-21.53,28.49-13.66-8.1c-1.36-.81-2.63-5.56-4.07-5.26-1.91.39-4.66,2.04-6.62,3.52l-17.23,1.94c-8.59.96-15.76,6.18-20.92,11.89-6.01-1.43-11.57-1.91-19.24-1.58Z"/>
  <path class="cls-3" d="M253.5,220.11c1.96,9.65-28.28,22.29-53.42,8.74-2.3-1.24-4.88-5.33-5.03-7.5-.77-11.06,24.84-16.79,34.28-14.21l5.49,3.46c8.01-3.93,17.34,2.96,18.67,9.51Z"/>
  <path class="cls-3" d="M169.27,205.13l.19,28.48-45.4.32-.22-28.29c9.37-.19,20.32-.45,28.11.28,2.13.2,5.7,6.24,7.56,4.32,2.77-2.87,3.67-5.41,9.77-5.11Z"/>
  <path class="cls-4" d="M101.57,245.01c-11.45,2.06-20.9-5.99-25.56-14.12-5.51-9.61-6.49-22.58.19-30.54l20.53-1.73c-.08,15.14,1.37,29.97,4.84,46.4Z"/>
  <path class="cls-2" d="M204.6,263.88c3.96.5-13.25,18.29-20.97,13.4,7.76-3.87,14.27-7.34,19.17-13.63l1.79.22Z"/>
</svg>