<?xml version="1.0" encoding="UTF-8"?>
<svg id="Layer_0_Image" data-name="Layer 0 Image" xmlns="http://www.w3.org/2000/svg" viewBox="0 0 400 400">
  <defs>
    <style>
      .cls-1 {
        fill: #00cc73;
      }

      .cls-2 {
        fill: #faf9ec;
      }

      .cls-3 {
        fill: #00dfcd;
      }
    </style>
  </defs>
  <path class="cls-1" d="M287,254.45c-7.25,21.19-15.99,39.74-30.76,55.5-34.5,36.82-83.34,39.14-119.51,3.36-15.23-15.07-25.01-33.29-31.91-54.4-22.22-5.76-38.53-25.85-38.01-49.15.2-8.67,5.59-14.92,14.22-17.97-4.07-27.66-5.32-53.68,9.06-78.45,6.15-10.6,16.58-16.84,29.88-15.69.72-11.79,6.41-19.75,13.74-27.72,16.17-17.58,39.03-25.68,62.54-18.74,17.77,5.25,34.63,11.81,52.01,18.48,21.21,8.14,47.19,13.78,70.11,3.73-3.54,10.51-7.67,20.11-14.21,28.25l-3.66,4.55c23.4,23.82,17.93,51.43,2.51,77.87,10.65,4.87,15.94,14.47,15.7,25.71-.41,19.65-12.91,36.6-31.72,44.67ZM256.62,140.51c.8,15.61,6.62,29.53,16.57,41.4,5.28,6.3,13.83-.53,26.8.39,17.05-25.88,20.39-55.77-5-76.59,10.18-7.29,12.66-15.13,17.92-26.21l-8.66,1.26c-19.62,2.85-38.6-1.32-56.98-8.35-17.24-6.59-33.55-12.97-51.22-18.23-29.25-8.71-57.64,7.08-70.33,32.15-2.43,4.8-2.51,11.91-3.9,17.18-8.25-8.09-22.61,1.28-28.25,9.99-14.41,22.24-14.03,51.01-9.56,76.63l13.75,4.38c2.6-29.96,11.8-57.92,29.73-81.62,6.39-8.45,6.39,5.2,23.04,16.56,28.43,19.39,74.59,29.05,106.1,11.05ZM315.79,211.7c.73-9.29-2.66-16.78-8.7-21.51-5.73-4.49-14.62-6.14-22.1-3.26-5.4,2.08-9.62,1.29-13.84-3.14-9.61-10.08-14.49-23.52-17.5-37.84-38.13,16.37-98.36,2.42-122.86-31.96-44.89,56.11-40.45,154.56,13.2,202,28.1,24.85,67.03,26.7,96.93,3.76,21.59-16.57,35.49-40.38,43.04-67.22,16.74-6.77,30.29-21.33,31.83-40.83ZM103.05,254.68c-4.3-20.2-6.52-36.97-5.76-55.23-4.73-4.92-11.61-6.63-17.62-3.99-5.05,2.22-9.88,7.31-10,14.43-.35,19.98,13.41,40.04,33.38,44.79Z"/>
  <path class="cls-2" d="M315.79,211.7c-1.54,19.5-15.09,34.06-31.83,40.83-7.55,26.84-21.45,50.65-43.04,67.22-29.9,22.94-68.82,21.09-96.93-3.76-53.66-47.44-58.1-145.89-13.2-202,24.51,34.38,84.74,48.33,122.86,31.96,3.01,14.32,7.89,27.76,17.5,37.84,4.22,4.43,8.44,5.22,13.84,3.14,7.47-2.88,16.37-1.23,22.1,3.26,6.04,4.74,9.43,12.22,8.7,21.51ZM224.37,196.57c.4-1.08-1.58-4.28-2.7-3.9-1.8.61-4.33,2.37-5.19,3.62-.86,1.26-.65,5.35.79,6.04,2.51,1.22,5.78-2.26,7.09-5.77ZM152.55,196.44c-.18-.92-1.66-3.44-2.42-3.07-5.93,2.91-5.39,8.97-3.53,9.92,3.16,1.61,6.8-2.62,5.95-6.85ZM169.85,246.95l-.14,1.59c6.86,7.28,21.12,8.94,26.61-1.89-18.85,11.49-26.16-3.39-26.47.3ZM220.2,285.89c-2-.93-4.24-.22-5.95,1-13.12,9.41-28.52,10.89-43.21,3.63.81-2.53-.33,1.03-.58,1.8s1.72,1.85,2.65,2.26c15.83,6.87,33.89,3.51,47.08-8.68Z"/>
  <path class="cls-3" d="M256.62,140.51c-31.51,17.99-77.68,8.33-106.1-11.05-16.65-11.35-16.65-25.01-23.04-16.56-17.93,23.7-27.13,51.66-29.73,81.62l-13.75-4.38c-4.47-25.62-4.85-54.38,9.56-76.63,5.64-8.71,20-18.08,28.25-9.99,1.39-5.27,1.47-12.38,3.9-17.18,12.7-25.07,41.09-40.86,70.33-32.15,17.67,5.26,33.98,11.65,51.22,18.23,18.38,7.02,37.36,11.2,56.98,8.35l8.66-1.26c-5.26,11.08-7.74,18.92-17.92,26.21,25.39,20.82,22.05,50.71,5,76.59-12.97-.93-21.51,5.91-26.8-.39-9.95-11.87-15.77-25.8-16.57-41.4Z"/>
  <path class="cls-2" d="M103.05,254.68c-19.98-4.75-33.74-24.81-33.38-44.79.13-7.12,4.95-12.22,10-14.43,6.01-2.64,12.89-.93,17.62,3.99-.76,18.26,1.46,35.03,5.76,55.23Z"/>
  <path class="cls-1" d="M220.2,285.89c-13.19,12.19-31.25,15.55-47.08,8.68-.93-.4-2.9-1.5-2.65-2.26s1.38-4.33.58-1.8c14.7,7.26,30.09,5.79,43.21-3.63,1.7-1.22,3.95-1.92,5.95-1Z"/>
  <path class="cls-1" d="M169.85,246.95c.32-3.69,7.63,11.19,26.47-.3-5.49,10.83-19.76,9.17-26.61,1.89l.14-1.59Z"/>
  <path class="cls-1" d="M224.37,196.57c-1.31,3.51-4.58,6.98-7.09,5.77-1.44-.7-1.65-4.79-.79-6.04.86-1.26,3.39-3.02,5.19-3.62,1.12-.38,3.1,2.82,2.7,3.9Z"/>
  <path class="cls-1" d="M152.55,196.44c.85,4.23-2.8,8.46-5.95,6.85-1.86-.95-2.4-7.01,3.53-9.92.76-.37,2.24,2.15,2.42,3.07Z"/>
</svg>